STARTFONT 2.1
FONT -Adobe-Courier-Medium-O-Normal--14-100-100-100-M-90-ISO10646-1
SIZE 10 100 100
FONTBOUNDINGBOX 16 20 -4 -5
COMMENT $Xorg: $
COMMENT ISO10646-1 extension by Markus Kuhn <mkuhn@acm.org>, 2001-03-20
COMMENT 
COMMENT +
COMMENT  Copyright 1984-1989, 1994 Adobe Systems Incorporated.
COMMENT  Copyright 1988, 1994 Digital Equipment Corporation.
COMMENT
COMMENT  Adobe is a trademark of Adobe Systems Incorporated which may be
COMMENT  registered in certain jurisdictions.
COMMENT  Permission to use these trademarks is hereby granted only in
COMMENT  association with the images described in this file.
COMMENT
COMMENT  Permission to use, copy, modify, distribute and sell this software
COMMENT  and its documentation for any purpose and without fee is hereby
COMMENT  granted, provided that the above copyright notices appear in all
COMMENT  copies and that both those copyright notices and this permission
COMMENT  notice appear in supporting documentation, and that the names of
COMMENT  Adobe Systems and Digital Equipment Corporation not be used in
COMMENT  advertising or publicity pertaining to distribution of the software
COMMENT  without specific, written prior permission.  Adobe Systems and
COMMENT  Digital Equipment Corporation make no representations about the
COMMENT  suitability of this software for any purpose.  It is provided "as
COMMENT  is" without express or implied warranty.
COMMENT -
STARTPROPERTIES 26
FOUNDRY "Adobe"
FAMILY_NAME "Courier"
WEIGHT_NAME "Medium"
SLANT "O"
SETWIDTH_NAME "Normal"
ADD_STYLE_NAME ""
PIXEL_SIZE 14
POINT_SIZE 100
RESOLUTION_X 100
RESOLUTION_Y 100
SPACING "M"
AVERAGE_WIDTH 90
CHARSET_REGISTRY "ISO10646"
CHARSET_ENCODING "1"
CAP_HEIGHT 9
X_HEIGHT 7
FONT_ASCENT 11
FONT_DESCENT 3
FACE_NAME "Courier Oblique"
COPYRIGHT "Copyright (c) 1984, 1987 Adobe Systems Incorporated. All Rights Reserved. Copyright (c) 1988, 1991 Digital Equipment Corporation. All Rights Reserved."
NOTICE "No mark"
_DEC_DEVICE_FONTNAMES "PS=Courier-Oblique"

STARTCHAR char0
ENCODING 0
SWIDTH 600 0
DWIDTH 9 0
BBX 9 9 0 0
BITMAP
AA80
0000
8080
0000
8080
0000
8080
0000
AA80
ENDCHAR
STARTCHAR space
ENCODING 32
SWIDTH 600 0
DWIDTH 9 0
BBX 1 1 0 0
BITMAP
00
ENDCHAR
STARTCHAR exclam
ENCODING 33
SWIDTH 600 0
DWIDTH 9 0
BBX 5 9 2 0
BITMAP
18
18
10
30
20
20
00
C0
C0
ENDCHAR
STARTCHAR quotedbl
ENCODING 34
SWIDTH 600 0
DWIDTH 9 0
BBX 5 4 3 6
BITMAP
D8
D8
90
90
ENDCHAR
STARTCHAR numbersign
ENCODING 35
SWIDTH 600 0
DWIDTH 9 0
BBX 7 11 1 -1
BITMAP
14
14
14
7E
28
28
FC
50
50
50
50
ENDCHAR
STARTCHAR dollar
ENCODING 36
SWIDTH 600 0
DWIDTH 9 0
BBX 7 11 1 -1
BITMAP
08
1E
22
20
18
04
84
88
70
20
20
ENDCHAR
STARTCHAR percent
ENCODING 37
SWIDTH 600 0
DWIDTH 9 0
BBX 8 10 0 0
BITMAP
30
48
48
33
0C
30
CC
12
12
0C
ENDCHAR
STARTCHAR ampersand
ENCODING 38
SWIDTH 600 0
DWIDTH 9 0
BBX 6 8 1 0
BITMAP
1C
20
20
20
54
88
98
6C
ENDCHAR
STARTCHAR quotesingle
ENCODING 39
SWIDTH 600 0
DWIDTH 9 0
BBX 2 4 4 5
BITMAP
C0
C0
80
80
ENDCHAR
STARTCHAR parenleft
ENCODING 40
SWIDTH 600 0
DWIDTH 9 0
BBX 5 13 3 -3
BITMAP
08
10
20
40
40
80
80
80
80
80
40
40
20
ENDCHAR
STARTCHAR parenright
ENCODING 41
SWIDTH 600 0
DWIDTH 9 0
BBX 5 13 1 -3
BITMAP
20
10
10
08
08
08
08
08
10
10
20
40
80
ENDCHAR
STARTCHAR asterisk
ENCODING 42
SWIDTH 600 0
DWIDTH 9 0
BBX 6 6 2 3
BITMAP
10
10
FC
30
50
90
ENDCHAR
STARTCHAR plus
ENCODING 43
SWIDTH 600 0
DWIDTH 9 0
BBX 6 7 2 1
BITMAP
10
10
10
FC
20
20
20
ENDCHAR
STARTCHAR comma
ENCODING 44
SWIDTH 600 0
DWIDTH 9 0
BBX 3 4 2 -2
BITMAP
60
60
C0
80
ENDCHAR
STARTCHAR hyphen
ENCODING 45
SWIDTH 600 0
DWIDTH 9 0
BBX 6 1 1 4
BITMAP
FC
ENDCHAR
STARTCHAR period
ENCODING 46
SWIDTH 600 0
DWIDTH 9 0
BBX 2 2 3 0
BITMAP
C0
C0
ENDCHAR
STARTCHAR slash
ENCODING 47
SWIDTH 600 0
DWIDTH 9 0
BBX 6 12 1 -2
BITMAP
04
04
08
08
10
10
20
20
40
40
80
80
ENDCHAR
STARTCHAR zero
ENCODING 48
SWIDTH 600 0
DWIDTH 9 0
BBX 7 10 1 0
BITMAP
1C
22
42
42
82
82
84
84
88
70
ENDCHAR
STARTCHAR one
ENCODING 49
SWIDTH 600 0
DWIDTH 9 0
BBX 5 10 1 0
BITMAP
08
78
08
10
10
10
10
20
20
F8
ENDCHAR
STARTCHAR two
ENCODING 50
SWIDTH 600 0
DWIDTH 9 0
BBX 7 10 1 0
BITMAP
1C
22
22
02
04
08
10
20
42
FC
ENDCHAR
STARTCHAR three
ENCODING 51
SWIDTH 600 0
DWIDTH 9 0
BBX 7 10 1 0
BITMAP
1C
22
02
04
38
08
04
04
88
70
ENDCHAR
STARTCHAR four
ENCODING 52
SWIDTH 600 0
DWIDTH 9 0
BBX 6 10 1 0
BITMAP
0C
14
24
24
48
48
88
FC
10
38
ENDCHAR
STARTCHAR five
ENCODING 53
SWIDTH 600 0
DWIDTH 9 0
BBX 7 10 1 0
BITMAP
3E
20
20
40
78
04
04
04
88
70
ENDCHAR
STARTCHAR six
ENCODING 54
SWIDTH 600 0
DWIDTH 9 0
BBX 6 10 2 0
BITMAP
1C
60
40
B8
C4
84
84
84
88
70
ENDCHAR
STARTCHAR seven
ENCODING 55
SWIDTH 600 0
DWIDTH 9 0
BBX 6 10 2 0
BITMAP
7C
84
08
08
10
10
20
20
40
40
ENDCHAR
STARTCHAR eight
ENCODING 56
SWIDTH 600 0
DWIDTH 9 0
BBX 6 10 1 0
BITMAP
38
44
44
44
78
84
84
84
88
70
ENDCHAR
STARTCHAR nine
ENCODING 57
SWIDTH 600 0
DWIDTH 9 0
BBX 6 10 1 0
BITMAP
38
44
84
84
8C
74
04
08
18
E0
ENDCHAR
STARTCHAR colon
ENCODING 58
SWIDTH 600 0
DWIDTH 9 0
BBX 4 7 2 0
BITMAP
30
30
00
00
00
C0
C0
ENDCHAR
STARTCHAR semicolon
ENCODING 59
SWIDTH 600 0
DWIDTH 9 0
BBX 5 9 1 -2
BITMAP
18
18
00
00
00
60
60
C0
80
ENDCHAR
STARTCHAR less
ENCODING 60
SWIDTH 600 0
DWIDTH 9 0
BBX 7 7 1 1
BITMAP
06
18
60
80
40
20
10
ENDCHAR
STARTCHAR equal
ENCODING 61
SWIDTH 600 0
DWIDTH 9 0
BBX 7 3 1 3
BITMAP
7E
00
FC
ENDCHAR
STARTCHAR greater
ENCODING 62
SWIDTH 600 0
DWIDTH 9 0
BBX 7 7 1 1
BITMAP
10
08
04
02
0C
30
C0
ENDCHAR
STARTCHAR question
ENCODING 63
SWIDTH 600 0
DWIDTH 9 0
BBX 6 9 2 0
BITMAP
78
44
04
0C
38
40
00
C0
C0
ENDCHAR
STARTCHAR at
ENCODING 64
SWIDTH 600 0
DWIDTH 9 0
BBX 7 9 1 0
BITMAP
1E
22
4E
52
A4
A4
9E
80
78
ENDCHAR
STARTCHAR A
ENCODING 65
SWIDTH 600 0
DWIDTH 9 0
BBX 8 9 0 0
BITMAP
1E
06
0A
0A
12
3E
22
42
EF
ENDCHAR
STARTCHAR B
ENCODING 66
SWIDTH 600 0
DWIDTH 9 0
BBX 8 9 0 0
BITMAP
3E
11
11
22
3C
22
42
44
F8
ENDCHAR
STARTCHAR C
ENCODING 67
SWIDTH 600 0
DWIDTH 9 0
BBX 7 9 1 0
BITMAP
1E
62
42
80
80
80
84
CC
70
ENDCHAR
STARTCHAR D
ENCODING 68
SWIDTH 600 0
DWIDTH 9 0
BBX 8 9 0 0
BITMAP
3E
13
11
21
21
21
42
46
F8
ENDCHAR
STARTCHAR E
ENCODING 69
SWIDTH 600 0
DWIDTH 9 0
BBX 9 9 0 0
BITMAP
3F80
1100
1100
2400
3C00
2400
4100
4200
FE00
ENDCHAR
STARTCHAR F
ENCODING 70
SWIDTH 600 0
DWIDTH 9 0
BBX 9 9 0 0
BITMAP
3F80
1100
1100
2400
3C00
2400
4000
4000
F000
ENDCHAR
STARTCHAR G
ENCODING 71
SWIDTH 600 0
DWIDTH 9 0
BBX 7 9 1 0
BITMAP
1E
62
42
80
80
9E
84
CC
70
ENDCHAR
STARTCHAR H
ENCODING 72
SWIDTH 600 0
DWIDTH 9 0
BBX 9 9 0 0
BITMAP
3B80
1100
1100
2200
3E00
2200
4400
4400
EE00
ENDCHAR
STARTCHAR I
ENCODING 73
SWIDTH 600 0
DWIDTH 9 0
BBX 7 9 1 0
BITMAP
3E
08
08
10
10
10
20
20
F8
ENDCHAR
STARTCHAR J
ENCODING 74
SWIDTH 600 0
DWIDTH 9 0
BBX 9 9 0 0
BITMAP
1F80
0200
0200
0400
0400
4400
8800
8800
7000
ENDCHAR
STARTCHAR K
ENCODING 75
SWIDTH 600 0
DWIDTH 9 0
BBX 9 9 0 0
BITMAP
3B80
1100
1200
2400
3800
2400
4400
4400
E600
ENDCHAR
STARTCHAR L
ENCODING 76
SWIDTH 600 0
DWIDTH 9 0
BBX 8 9 0 0
BITMAP
3E
08
08
10
10
11
21
22
FE
ENDCHAR
STARTCHAR M
ENCODING 77
SWIDTH 600 0
DWIDTH 9 0
BBX 10 9 0 0
BITMAP
30C0
1180
1280
2A80
2D00
2900
4200
4200
E700
ENDCHAR
STARTCHAR N
ENCODING 78
SWIDTH 600 0
DWIDTH 9 0
BBX 10 9 0 0
BITMAP
71C0
1080
1080
2900
2900
2500
4500
4200
F200
ENDCHAR
STARTCHAR O
ENCODING 79
SWIDTH 600 0
DWIDTH 9 0
BBX 7 9 1 0
BITMAP
1C
66
42
82
82
82
84
CC
70
ENDCHAR
STARTCHAR P
ENCODING 80
SWIDTH 600 0
DWIDTH 9 0
BBX 8 9 0 0
BITMAP
3E
11
11
21
22
3C
40
40
F8
ENDCHAR
STARTCHAR Q
ENCODING 81
SWIDTH 600 0
DWIDTH 9 0
BBX 7 11 1 -2
BITMAP
1C
66
42
82
82
82
84
CC
30
60
9C
ENDCHAR
STARTCHAR R
ENCODING 82
SWIDTH 600 0
DWIDTH 9 0
BBX 8 9 0 0
BITMAP
3E
11
11
21
22
3C
44
42
F3
ENDCHAR
STARTCHAR S
ENCODING 83
SWIDTH 600 0
DWIDTH 9 0
BBX 8 9 0 0
BITMAP
1D
33
22
20
1C
02
42
C6
BC
ENDCHAR
STARTCHAR T
ENCODING 84
SWIDTH 600 0
DWIDTH 9 0
BBX 9 9 1 0
BITMAP
7F80
4880
8900
9100
1000
1000
2000
2000
F800
ENDCHAR
STARTCHAR U
ENCODING 85
SWIDTH 600 0
DWIDTH 9 0
BBX 8 9 1 0
BITMAP
77
22
22
44
44
44
88
88
70
ENDCHAR
STARTCHAR V
ENCODING 86
SWIDTH 600 0
DWIDTH 9 0
BBX 9 9 1 0
BITMAP
E780
4100
4100
4200
2400
2400
2800
3000
3000
ENDCHAR
STARTCHAR W
ENCODING 87
SWIDTH 600 0
DWIDTH 9 0
BBX 10 9 0 0
BITMAP
E1C0
4080
4880
4900
5500
5500
6600
6600
4400
ENDCHAR
STARTCHAR X
ENCODING 88
SWIDTH 600 0
DWIDTH 9 0
BBX 9 9 0 0
BITMAP
3B80
1100
1200
0C00
0800
1800
2400
4400
EE00
ENDCHAR
STARTCHAR Y
ENCODING 89
SWIDTH 600 0
DWIDTH 9 0
BBX 8 9 1 0
BITMAP
77
22
24
28
10
10
20
20
F8
ENDCHAR
STARTCHAR Z
ENCODING 90
SWIDTH 600 0
DWIDTH 9 0
BBX 7 9 1 0
BITMAP
3E
42
44
08
10
20
44
84
F8
ENDCHAR
STARTCHAR bracketleft
ENCODING 91
SWIDTH 600 0
DWIDTH 9 0
BBX 5 13 2 -3
BITMAP
38
20
20
20
40
40
40
40
40
80
80
80
E0
ENDCHAR
STARTCHAR backslash
ENCODING 92
SWIDTH 600 0
DWIDTH 9 0
BBX 6 12 1 -2
BITMAP
80
80
40
40
20
20
10
10
08
08
04
04
ENDCHAR
STARTCHAR bracketright
ENCODING 93
SWIDTH 600 0
DWIDTH 9 0
BBX 5 13 2 -3
BITMAP
38
08
08
08
10
10
10
10
10
20
20
20
E0
ENDCHAR
STARTCHAR asciicircum
ENCODING 94
SWIDTH 600 0
DWIDTH 9 0
BBX 6 4 2 5
BITMAP
18
28
44
84
ENDCHAR
STARTCHAR underscore
ENCODING 95
SWIDTH 600 0
DWIDTH 9 0
BBX 9 1 -1 -3
BITMAP
FF80
ENDCHAR
STARTCHAR grave
ENCODING 96
SWIDTH 600 0
DWIDTH 9 0
BBX 4 2 3 7
BITMAP
C0
30
ENDCHAR
STARTCHAR a
ENCODING 97
SWIDTH 600 0
DWIDTH 9 0
BBX 6 7 1 0
BITMAP
38
44
04
78
88
88
74
ENDCHAR
STARTCHAR b
ENCODING 98
SWIDTH 600 0
DWIDTH 9 0
BBX 8 10 0 0
BITMAP
30
10
10
16
29
31
21
61
62
DC
ENDCHAR
STARTCHAR c
ENCODING 99
SWIDTH 600 0
DWIDTH 9 0
BBX 7 7 1 0
BITMAP
1E
62
42
80
80
8C
70
ENDCHAR
STARTCHAR d
ENCODING 100
SWIDTH 600 0
DWIDTH 9 0
BBX 7 10 1 0
BITMAP
06
02
02
34
4C
84
84
88
98
6C
ENDCHAR
STARTCHAR e
ENCODING 101
SWIDTH 600 0
DWIDTH 9 0
BBX 7 7 1 0
BITMAP
1C
62
42
FE
80
8C
70
ENDCHAR
STARTCHAR f
ENCODING 102
SWIDTH 600 0
DWIDTH 9 0
BBX 9 10 1 0
BITMAP
0780
0800
0800
3E00
1000
1000
1000
2000
2000
FC00
ENDCHAR
STARTCHAR g
ENCODING 103
SWIDTH 600 0
DWIDTH 9 0
BBX 8 10 0 -3
BITMAP
19
26
42
42
44
4C
34
04
88
70
ENDCHAR
STARTCHAR h
ENCODING 104
SWIDTH 600 0
DWIDTH 9 0
BBX 7 10 0 0
BITMAP
30
10
10
1C
32
22
22
44
44
EE
ENDCHAR
STARTCHAR i
ENCODING 105
SWIDTH 600 0
DWIDTH 9 0
BBX 5 10 2 0
BITMAP
08
08
00
70
10
10
20
20
20
F8
ENDCHAR
STARTCHAR j
ENCODING 106
SWIDTH 600 0
DWIDTH 9 0
BBX 8 13 -1 -3
BITMAP
01
01
00
1E
02
02
02
04
04
04
08
08
F0
ENDCHAR
STARTCHAR k
ENCODING 107
SWIDTH 600 0
DWIDTH 9 0
BBX 8 10 0 0
BITMAP
30
10
10
17
24
28
30
48
44
CE
ENDCHAR
STARTCHAR l
ENCODING 108
SWIDTH 600 0
DWIDTH 9 0
BBX 6 10 1 0
BITMAP
38
08
08
10
10
10
10
20
20
FC
ENDCHAR
STARTCHAR m
ENCODING 109
SWIDTH 600 0
DWIDTH 9 0
BBX 9 7 0 0
BITMAP
6D80
3680
2480
2480
4900
4900
ED80
ENDCHAR
STARTCHAR n
ENCODING 110
SWIDTH 600 0
DWIDTH 9 0
BBX 8 7 0 0
BITMAP
6E
31
21
21
42
42
E7
ENDCHAR
STARTCHAR o
ENCODING 111
SWIDTH 600 0
DWIDTH 9 0
BBX 7 7 1 0
BITMAP
1C
62
42
82
84
8C
70
ENDCHAR
STARTCHAR p
ENCODING 112
SWIDTH 600 0
DWIDTH 9 0
BBX 9 10 -1 -3
BITMAP
3700
1880
1080
1080
2100
3300
2C00
4000
4000
F000
ENDCHAR
STARTCHAR q
ENCODING 113
SWIDTH 600 0
DWIDTH 9 0
BBX 8 10 1 -3
BITMAP
1B
66
42
82
84
8C
74
08
08
3C
ENDCHAR
STARTCHAR r
ENCODING 114
SWIDTH 600 0
DWIDTH 9 0
BBX 8 7 0 0
BITMAP
37
18
10
10
20
20
FC
ENDCHAR
STARTCHAR s
ENCODING 115
SWIDTH 600 0
DWIDTH 9 0
BBX 7 7 0 0
BITMAP
1E
22
20
18
04
84
F8
ENDCHAR
STARTCHAR t
ENCODING 116
SWIDTH 600 0
DWIDTH 9 0
BBX 7 9 1 0
BITMAP
10
10
FE
20
20
40
40
44
38
ENDCHAR
STARTCHAR u
ENCODING 117
SWIDTH 600 0
DWIDTH 9 0
BBX 6 7 1 0
BITMAP
CC
44
44
88
88
98
6C
ENDCHAR
STARTCHAR v
ENCODING 118
SWIDTH 600 0
DWIDTH 9 0
BBX 8 7 1 0
BITMAP
E7
42
44
44
28
28
30
ENDCHAR
STARTCHAR w
ENCODING 119
SWIDTH 600 0
DWIDTH 9 0
BBX 10 7 0 0
BITMAP
E1C0
4880
4900
5900
6600
6600
4400
ENDCHAR
STARTCHAR x
ENCODING 120
SWIDTH 600 0
DWIDTH 9 0
BBX 8 7 0 0
BITMAP
77
22
14
18
28
44
EE
ENDCHAR
STARTCHAR y
ENCODING 121
SWIDTH 600 0
DWIDTH 9 0
BBX 9 10 0 -3
BITMAP
7380
2100
2200
1400
1400
0800
1000
1000
2000
F000
ENDCHAR
STARTCHAR z
ENCODING 122
SWIDTH 600 0
DWIDTH 9 0
BBX 7 7 1 0
BITMAP
7E
44
08
10
20
44
FC
ENDCHAR
STARTCHAR braceleft
ENCODING 123
SWIDTH 600 0
DWIDTH 9 0
BBX 5 13 3 -3
BITMAP
18
20
20
20
40
80
40
40
40
80
80
80
60
ENDCHAR
STARTCHAR bar
ENCODING 124
SWIDTH 600 0
DWIDTH 9 0
BBX 3 11 3 -2
BITMAP
20
20
20
40
40
40
40
80
80
80
80
ENDCHAR
STARTCHAR braceright
ENCODING 125
SWIDTH 600 0
DWIDTH 9 0
BBX 5 13 1 -3
BITMAP
30
08
08
10
10
08
10
20
20
20
20
20
C0
ENDCHAR
STARTCHAR asciitilde
ENCODING 126
SWIDTH 600 0
DWIDTH 9 0
BBX 7 2 1 3
BITMAP
72
9C
ENDCHAR
STARTCHAR space
ENCODING 160
SWIDTH 600 0
DWIDTH 9 0
BBX 1 1 0 0
BITMAP
00
ENDCHAR
STARTCHAR exclamdown
ENCODING 161
SWIDTH 600 0
DWIDTH 9 0
BBX 4 9 2 -2
BITMAP
10
10
00
20
20
60
40
C0
C0
ENDCHAR
STARTCHAR cent
ENCODING 162
SWIDTH 600 0
DWIDTH 9 0
BBX 6 10 2 0
BITMAP
08
08
3C
44
80
80
88
70
20
20
ENDCHAR
STARTCHAR sterling
ENCODING 163
SWIDTH 600 0
DWIDTH 9 0
BBX 7 9 1 0
BITMAP
1C
22
20
20
78
20
20
42
FC
ENDCHAR
STARTCHAR currency
ENCODING 164
SWIDTH 600 0
DWIDTH 9 0
BBX 7 6 1 1
BITMAP
66
3C
44
44
78
CC
ENDCHAR
STARTCHAR yen
ENCODING 165
SWIDTH 600 0
DWIDTH 9 0
BBX 8 9 1 0
BITMAP
77
22
24
28
7C
10
F8
20
70
ENDCHAR
STARTCHAR brokenbar
ENCODING 166
SWIDTH 600 0
DWIDTH 9 0
BBX 3 11 3 -2
BITMAP
20
20
40
40
00
00
40
40
80
80
80
ENDCHAR
STARTCHAR section
ENCODING 167
SWIDTH 600 0
DWIDTH 9 0
BBX 8 10 1 -1
BITMAP
1F
21
78
4C
66
32
1E
04
84
F8
ENDCHAR
STARTCHAR dieresis
ENCODING 168
SWIDTH 600 0
DWIDTH 9 0
BBX 4 1 3 8
BITMAP
90
ENDCHAR
STARTCHAR copyright
ENCODING 169
SWIDTH 600 0
DWIDTH 9 0
BBX 9 9 0 0
BITMAP
1E00
6100
4E80
9280
A080
A480
9900
4300
3C00
ENDCHAR
STARTCHAR ordfeminine
ENCODING 170
SWIDTH 600 0
DWIDTH 9 0
BBX 5 7 1 2
BITMAP
38
08
38
50
78
00
F0
ENDCHAR
STARTCHAR guillemotleft
ENCODING 171
SWIDTH 600 0
DWIDTH 9 0
BBX 7 6 1 1
BITMAP
12
24
48
90
48
24
ENDCHAR
STARTCHAR logicalnot
ENCODING 172
SWIDTH 600 0
DWIDTH 9 0
BBX 6 3 1 3
BITMAP
FC
08
08
ENDCHAR
STARTCHAR hyphen
ENCODING 173
SWIDTH 600 0
DWIDTH 9 0
BBX 6 1 1 4
BITMAP
FC
ENDCHAR
STARTCHAR registered
ENCODING 174
SWIDTH 600 0
DWIDTH 9 0
BBX 9 9 0 0
BITMAP
1E00
2100
5C80
9280
9C80
A880
A500
4200
3C00
ENDCHAR
STARTCHAR macron
ENCODING 175
SWIDTH 600 0
DWIDTH 9 0
BBX 4 1 3 8
BITMAP
F0
ENDCHAR
STARTCHAR degree
ENCODING 176
SWIDTH 600 0
DWIDTH 9 0
BBX 4 4 3 6
BITMAP
70
90
90
E0
ENDCHAR
STARTCHAR plusminus
ENCODING 177
SWIDTH 600 0
DWIDTH 9 0
BBX 7 7 1 1
BITMAP
08
08
7E
10
10
00
FC
ENDCHAR
STARTCHAR twosuperior
ENCODING 178
SWIDTH 600 0
DWIDTH 9 0
BBX 5 6 2 4
BITMAP
30
48
08
30
40
F0
ENDCHAR
STARTCHAR threesuperior
ENCODING 179
SWIDTH 600 0
DWIDTH 9 0
BBX 5 6 3 4
BITMAP
70
08
70
10
10
E0
ENDCHAR
STARTCHAR acute
ENCODING 180
SWIDTH 600 0
DWIDTH 9 0
BBX 4 2 3 7
BITMAP
30
C0
ENDCHAR
STARTCHAR mu
ENCODING 181
SWIDTH 600 0
DWIDTH 9 0
BBX 7 10 0 -3
BITMAP
66
22
22
44
44
4C
F6
80
80
80
ENDCHAR
STARTCHAR paragraph
ENCODING 182
SWIDTH 600 0
DWIDTH 9 0
BBX 8 10 1 -1
BITMAP
3F
6A
4A
54
34
14
28
28
28
FC
ENDCHAR
STARTCHAR periodcentered
ENCODING 183
SWIDTH 600 0
DWIDTH 9 0
BBX 2 2 4 3
BITMAP
C0
C0
ENDCHAR
STARTCHAR cedilla
ENCODING 184
SWIDTH 600 0
DWIDTH 9 0
BBX 4 4 1 -3
BITMAP
20
30
10
E0
ENDCHAR
STARTCHAR onesuperior
ENCODING 185
SWIDTH 600 0
DWIDTH 9 0
BBX 3 6 3 4
BITMAP
20
E0
20
40
40
E0
ENDCHAR
STARTCHAR ordmasculine
ENCODING 186
SWIDTH 600 0
DWIDTH 9 0
BBX 6 7 1 2
BITMAP
1C
24
44
48
70
00
F0
ENDCHAR
STARTCHAR guillemotright
ENCODING 187
SWIDTH 600 0
DWIDTH 9 0
BBX 7 6 0 1
BITMAP
48
24
12
24
48
90
ENDCHAR
STARTCHAR onequarter
ENCODING 188
SWIDTH 600 0
DWIDTH 9 0
BBX 9 10 0 0
BITMAP
2080
E100
2200
4400
4980
EA80
1500
2900
4F80
8200
ENDCHAR
STARTCHAR onehalf
ENCODING 189
SWIDTH 600 0
DWIDTH 9 0
BBX 9 10 0 0
BITMAP
2000
E100
2200
4400
4B00
EC80
1080
2300
4400
8F00
ENDCHAR
STARTCHAR threequarters
ENCODING 190
SWIDTH 600 0
DWIDTH 9 0
BBX 10 10 0 0
BITMAP
7040
0880
7100
1200
1580
EA80
1500
2900
4F80
8200
ENDCHAR
STARTCHAR questiondown
ENCODING 191
SWIDTH 600 0
DWIDTH 9 0
BBX 5 9 1 -2
BITMAP
08
08
00
08
70
C0
80
88
78
ENDCHAR
STARTCHAR Agrave
ENCODING 192
SWIDTH 600 0
DWIDTH 9 0
BBX 8 12 0 0
BITMAP
18
06
00
1E
06
0A
0A
12
3E
22
42
EF
ENDCHAR
STARTCHAR Aacute
ENCODING 193
SWIDTH 600 0
DWIDTH 9 0
BBX 8 12 0 0
BITMAP
03
0C
00
1E
06
0A
0A
12
3E
22
42
EF
ENDCHAR
STARTCHAR Acircumflex
ENCODING 194
SWIDTH 600 0
DWIDTH 9 0
BBX 8 12 0 0
BITMAP
06
0A
00
1E
06
0A
0A
12
3E
22
42
EF
ENDCHAR
STARTCHAR Atilde
ENCODING 195
SWIDTH 600 0
DWIDTH 9 0
BBX 8 12 0 0
BITMAP
05
0A
00
1E
06
0A
0A
12
3E
22
42
EF
ENDCHAR
STARTCHAR Adieresis
ENCODING 196
SWIDTH 600 0
DWIDTH 9 0
BBX 8 11 0 0
BITMAP
0A
00
1E
06
0A
0A
12
3E
22
42
EF
ENDCHAR
STARTCHAR Aring
ENCODING 197
SWIDTH 600 0
DWIDTH 9 0
BBX 8 12 0 0
BITMAP
03
05
06
1E
06
0A
0A
12
3E
22
42
EF
ENDCHAR
STARTCHAR AE
ENCODING 198
SWIDTH 600 0
DWIDTH 9 0
BBX 12 9 -2 0
BITMAP
0FF0
0510
0900
0A40
13C0
3E40
2400
4440
F7C0
ENDCHAR
STARTCHAR Ccedilla
ENCODING 199
SWIDTH 600 0
DWIDTH 9 0
BBX 8 12 0 -3
BITMAP
0F
33
21
40
40
40
42
66
38
30
10
E0
ENDCHAR
STARTCHAR Egrave
ENCODING 200
SWIDTH 600 0
DWIDTH 9 0
BBX 9 12 0 0
BITMAP
1800
0600
0000
3F80
1100
1100
2400
3C00
2400
4100
4200
FE00
ENDCHAR
STARTCHAR Eacute
ENCODING 201
SWIDTH 600 0
DWIDTH 9 0
BBX 9 12 0 0
BITMAP
0300
0C00
0000
3F80
1100
1100
2400
3C00
2400
4100
4200
FE00
ENDCHAR
STARTCHAR Ecircumflex
ENCODING 202
SWIDTH 600 0
DWIDTH 9 0
BBX 9 12 0 0
BITMAP
0600
0A00
0000
3F80
1080
1080
2400
3C00
2400
4100
4200
FE00
ENDCHAR
STARTCHAR Edieresis
ENCODING 203
SWIDTH 600 0
DWIDTH 9 0
BBX 9 11 0 0
BITMAP
0900
0000
3F80
1080
1080
2400
3C00
2400
4100
4200
FE00
ENDCHAR
STARTCHAR Igrave
ENCODING 204
SWIDTH 600 0
DWIDTH 9 0
BBX 7 12 1 0
BITMAP
30
0C
00
3E
08
08
10
10
10
20
20
F8
ENDCHAR
STARTCHAR Iacute
ENCODING 205
SWIDTH 600 0
DWIDTH 9 0
BBX 7 12 1 0
BITMAP
06
18
00
3E
08
08
10
10
10
20
20
F8
ENDCHAR
STARTCHAR Icircumflex
ENCODING 206
SWIDTH 600 0
DWIDTH 9 0
BBX 7 12 1 0
BITMAP
06
0A
00
3E
08
08
10
10
10
20
20
F8
ENDCHAR
STARTCHAR Idieresis
ENCODING 207
SWIDTH 600 0
DWIDTH 9 0
BBX 7 11 1 0
BITMAP
12
00
3E
08
08
10
10
10
20
20
F8
ENDCHAR
STARTCHAR Eth
ENCODING 208
SWIDTH 600 0
DWIDTH 9 0
BBX 8 9 0 0
BITMAP
3E
13
11
21
79
21
42
46
F8
ENDCHAR
STARTCHAR Ntilde
ENCODING 209
SWIDTH 600 0
DWIDTH 9 0
BBX 10 12 0 0
BITMAP
0500
0A00
0000
71C0
1080
1080
2900
2900
2500
4500
4200
F200
ENDCHAR
STARTCHAR Ograve
ENCODING 210
SWIDTH 600 0
DWIDTH 9 0
BBX 7 12 1 0
BITMAP
30
0C
00
1C
66
42
82
82
82
84
CC
70
ENDCHAR
STARTCHAR Oacute
ENCODING 211
SWIDTH 600 0
DWIDTH 9 0
BBX 7 12 1 0
BITMAP
06
18
00
1C
66
42
82
82
82
84
CC
70
ENDCHAR
STARTCHAR Ocircumflex
ENCODING 212
SWIDTH 600 0
DWIDTH 9 0
BBX 7 12 1 0
BITMAP
0C
14
00
1C
66
42
82
82
82
84
CC
70
ENDCHAR
STARTCHAR Otilde
ENCODING 213
SWIDTH 600 0
DWIDTH 9 0
BBX 7 12 1 0
BITMAP
0A
14
00
1C
66
42
82
82
82
84
CC
70
ENDCHAR
STARTCHAR Odieresis
ENCODING 214
SWIDTH 600 0
DWIDTH 9 0
BBX 7 11 1 0
BITMAP
12
00
1C
66
42
82
82
82
84
CC
70
ENDCHAR
STARTCHAR multiply
ENCODING 215
SWIDTH 600 0
DWIDTH 9 0
BBX 8 7 1 1
BITMAP
41
22
14
18
28
44
82
ENDCHAR
STARTCHAR Oslash
ENCODING 216
SWIDTH 600 0
DWIDTH 9 0
BBX 9 9 0 0
BITMAP
0E80
3300
2300
4500
4900
5100
6200
6600
B800
ENDCHAR
STARTCHAR Ugrave
ENCODING 217
SWIDTH 600 0
DWIDTH 9 0
BBX 8 12 1 0
BITMAP
18
06
00
77
22
22
44
44
44
88
88
70
ENDCHAR
STARTCHAR Uacute
ENCODING 218
SWIDTH 600 0
DWIDTH 9 0
BBX 8 12 1 0
BITMAP
06
18
00
77
22
22
44
44
44
88
88
70
ENDCHAR
STARTCHAR Ucircumflex
ENCODING 219
SWIDTH 600 0
DWIDTH 9 0
BBX 8 12 1 0
BITMAP
06
0A
00
77
22
22
44
44
44
88
88
70
ENDCHAR
STARTCHAR Udieresis
ENCODING 220
SWIDTH 600 0
DWIDTH 9 0
BBX 8 11 1 0
BITMAP
12
00
77
22
22
44
44
44
88
88
70
ENDCHAR
STARTCHAR Yacute
ENCODING 221
SWIDTH 600 0
DWIDTH 9 0
BBX 8 12 1 0
BITMAP
06
18
00
77
22
24
28
10
10
20
20
F8
ENDCHAR
STARTCHAR Thorn
ENCODING 222
SWIDTH 600 0
DWIDTH 9 0
BBX 8 9 0 0
BITMAP
38
10
1E
21
21
22
7C
40
E0
ENDCHAR
STARTCHAR germandbls
ENCODING 223
SWIDTH 600 0
DWIDTH 9 0
BBX 8 9 0 0
BITMAP
0E
11
11
26
22
21
41
52
EC
ENDCHAR
STARTCHAR agrave
ENCODING 224
SWIDTH 600 0
DWIDTH 9 0
BBX 6 10 1 0
BITMAP
60
18
00
38
44
04
78
88
88
74
ENDCHAR
STARTCHAR aacute
ENCODING 225
SWIDTH 600 0
DWIDTH 9 0
BBX 6 10 1 0
BITMAP
0C
30
00
38
44
04
78
88
88
74
ENDCHAR
STARTCHAR acircumflex
ENCODING 226
SWIDTH 600 0
DWIDTH 9 0
BBX 6 10 1 0
BITMAP
0C
14
00
38
44
04
78
88
88
74
ENDCHAR
STARTCHAR atilde
ENCODING 227
SWIDTH 600 0
DWIDTH 9 0
BBX 6 10 1 0
BITMAP
14
28
00
38
44
04
78
88
88
74
ENDCHAR
STARTCHAR adieresis
ENCODING 228
SWIDTH 600 0
DWIDTH 9 0
BBX 6 9 1 0
BITMAP
24
00
38
44
04
78
88
88
74
ENDCHAR
STARTCHAR aring
ENCODING 229
SWIDTH 600 0
DWIDTH 9 0
BBX 6 11 1 0
BITMAP
0C
14
18
00
38
44
04
78
88
88
74
ENDCHAR
STARTCHAR ae
ENCODING 230
SWIDTH 600 0
DWIDTH 9 0
BBX 9 7 0 0
BITMAP
3B00
4480
0480
7F00
8800
8900
7600
ENDCHAR
STARTCHAR ccedilla
ENCODING 231
SWIDTH 600 0
DWIDTH 9 0
BBX 8 10 0 -3
BITMAP
0F
31
21
40
40
46
38
20
10
E0
ENDCHAR
STARTCHAR egrave
ENCODING 232
SWIDTH 600 0
DWIDTH 9 0
BBX 7 10 1 0
BITMAP
30
0C
00
1C
62
42
FE
80
8C
70
ENDCHAR
STARTCHAR eacute
ENCODING 233
SWIDTH 600 0
DWIDTH 9 0
BBX 7 10 1 0
BITMAP
06
18
00
1C
62
42
FE
80
8C
70
ENDCHAR
STARTCHAR ecircumflex
ENCODING 234
SWIDTH 600 0
DWIDTH 9 0
BBX 7 10 1 0
BITMAP
06
0A
00
1C
62
42
FE
80
8C
70
ENDCHAR
STARTCHAR edieresis
ENCODING 235
SWIDTH 600 0
DWIDTH 9 0
BBX 7 9 1 0
BITMAP
12
00
1C
62
42
FE
80
8C
70
ENDCHAR
STARTCHAR igrave
ENCODING 236
SWIDTH 600 0
DWIDTH 9 0
BBX 5 10 2 0
BITMAP
C0
30
00
70
10
10
20
20
20
F8
ENDCHAR
STARTCHAR iacute
ENCODING 237
SWIDTH 600 0
DWIDTH 9 0
BBX 6 10 2 0
BITMAP
0C
30
00
70
10
10
20
20
20
F8
ENDCHAR
STARTCHAR icircumflex
ENCODING 238
SWIDTH 600 0
DWIDTH 9 0
BBX 5 10 2 0
BITMAP
18
28
00
70
10
10
20
20
20
F8
ENDCHAR
STARTCHAR idieresis
ENCODING 239
SWIDTH 600 0
DWIDTH 9 0
BBX 5 9 2 0
BITMAP
48
00
70
10
10
20
20
20
F8
ENDCHAR
STARTCHAR eth
ENCODING 240
SWIDTH 600 0
DWIDTH 9 0
BBX 7 10 1 0
BITMAP
72
1C
64
1E
62
42
82
84
8C
70
ENDCHAR
STARTCHAR ntilde
ENCODING 241
SWIDTH 600 0
DWIDTH 9 0
BBX 8 10 0 0
BITMAP
0A
14
00
6E
31
21
21
42
42
E7
ENDCHAR
STARTCHAR ograve
ENCODING 242
SWIDTH 600 0
DWIDTH 9 0
BBX 7 10 1 0
BITMAP
30
0C
00
1C
62
42
82
84
8C
70
ENDCHAR
STARTCHAR oacute
ENCODING 243
SWIDTH 600 0
DWIDTH 9 0
BBX 7 10 1 0
BITMAP
06
18
00
1C
62
42
82
84
8C
70
ENDCHAR
STARTCHAR ocircumflex
ENCODING 244
SWIDTH 600 0
DWIDTH 9 0
BBX 7 10 1 0
BITMAP
06
0A
00
1C
62
42
82
84
8C
70
ENDCHAR
STARTCHAR otilde
ENCODING 245
SWIDTH 600 0
DWIDTH 9 0
BBX 7 10 1 0
BITMAP
0A
14
00
1C
62
42
82
84
8C
70
ENDCHAR
STARTCHAR odieresis
ENCODING 246
SWIDTH 600 0
DWIDTH 9 0
BBX 7 9 1 0
BITMAP
12
00
1C
62
42
82
84
8C
70
ENDCHAR
STARTCHAR divide
ENCODING 247
SWIDTH 600 0
DWIDTH 9 0
BBX 6 7 2 1
BITMAP
10
10
00
FC
00
20
20
ENDCHAR
STARTCHAR oslash
ENCODING 248
SWIDTH 600 0
DWIDTH 9 0
BBX 9 7 0 0
BITMAP
0E80
3300
2500
4900
5200
6600
B800
ENDCHAR
STARTCHAR ugrave
ENCODING 249
SWIDTH 600 0
DWIDTH 9 0
BBX 6 10 1 0
BITMAP
60
18
00
CC
44
44
88
88
98
6C
ENDCHAR
STARTCHAR uacute
ENCODING 250
SWIDTH 600 0
DWIDTH 9 0
BBX 6 10 1 0
BITMAP
0C
30
00
CC
44
44
88
88
98
6C
ENDCHAR
STARTCHAR ucircumflex
ENCODING 251
SWIDTH 600 0
DWIDTH 9 0
BBX 6 10 1 0
BITMAP
18
28
00
CC
44
44
88
88
98
6C
ENDCHAR
STARTCHAR udieresis
ENCODING 252
SWIDTH 600 0
DWIDTH 9 0
BBX 6 9 1 0
BITMAP
48
00
CC
44
44
88
88
98
6C
ENDCHAR
STARTCHAR yacute
ENCODING 253
SWIDTH 600 0
DWIDTH 9 0
BBX 9 13 0 -3
BITMAP
0300
0C00
0000
7380
2100
2200
1400
1400
0800
1000
1000
2000
F000
ENDCHAR
STARTCHAR thorn
ENCODING 254
SWIDTH 600 0
DWIDTH 9 0
BBX 9 12 -1 -3
BITMAP
1800
0800
0F00
1880
1080
1080
2100
3300
2C00
4000
4000
F000
ENDCHAR
STARTCHAR ydieresis
ENCODING 255
SWIDTH 600 0
DWIDTH 9 0
BBX 9 12 0 -3
BITMAP
1200
0000
7380
2100
2200
1400
1400
0800
1000
1000
2000
F000
ENDCHAR
STARTCHAR Amacron
ENCODING 256
SWIDTH 600 0
DWIDTH 9 0
BBX 8 11 0 0
BITMAP
1E
00
1E
06
0A
0A
12
3E
22
42
EF
ENDCHAR
STARTCHAR amacron
ENCODING 257
SWIDTH 600 0
DWIDTH 9 0
BBX 6 9 1 0
BITMAP
78
00
38
44
04
78
88
88
74
ENDCHAR
STARTCHAR Abreve
ENCODING 258
SWIDTH 600 0
DWIDTH 9 0
BBX 8 12 0 0
BITMAP
12
1C
00
1E
06
0A
0A
12
3E
22
42
EF
ENDCHAR
STARTCHAR abreve
ENCODING 259
SWIDTH 600 0
DWIDTH 9 0
BBX 6 10 1 0
BITMAP
24
38
00
38
44
04
78
88
88
74
ENDCHAR
STARTCHAR Aogonek
ENCODING 260
SWIDTH 600 0
DWIDTH 9 0
BBX 8 11 0 -2
BITMAP
1E
06
0A
0A
12
3E
22
42
EF
10
1C
ENDCHAR
STARTCHAR aogonek
ENCODING 261
SWIDTH 600 0
DWIDTH 9 0
BBX 6 9 1 -2
BITMAP
38
44
04
78
88
88
74
20
38
ENDCHAR
STARTCHAR Cacute
ENCODING 262
SWIDTH 600 0
DWIDTH 9 0
BBX 7 12 1 0
BITMAP
06
18
00
1E
62
42
80
80
80
84
CC
70
ENDCHAR
STARTCHAR cacute
ENCODING 263
SWIDTH 600 0
DWIDTH 9 0
BBX 7 10 1 0
BITMAP
06
18
00
1E
62
42
80
80
8C
70
ENDCHAR
STARTCHAR Ccircumflex
ENCODING 264
SWIDTH 600 0
DWIDTH 9 0
BBX 7 12 1 0
BITMAP
0C
14
00
1E
62
42
80
80
80
84
CC
70
ENDCHAR
STARTCHAR ccircumflex
ENCODING 265
SWIDTH 600 0
DWIDTH 9 0
BBX 7 10 1 0
BITMAP
0C
14
00
1E
62
42
80
80
8C
70
ENDCHAR
STARTCHAR Cdotaccent
ENCODING 266
SWIDTH 600 0
DWIDTH 9 0
BBX 7 11 1 0
BITMAP
08
00
1E
62
42
80
80
80
84
CC
70
ENDCHAR
STARTCHAR cdotaccent
ENCODING 267
SWIDTH 600 0
DWIDTH 9 0
BBX 7 9 1 0
BITMAP
08
00
1E
62
42
80
80
8C
70
ENDCHAR
STARTCHAR Ccaron
ENCODING 268
SWIDTH 600 0
DWIDTH 9 0
BBX 7 12 1 0
BITMAP
14
18
00
1E
62
42
80
80
80
84
CC
70
ENDCHAR
STARTCHAR ccaron
ENCODING 269
SWIDTH 600 0
DWIDTH 9 0
BBX 7 10 1 0
BITMAP
14
18
00
1E
62
42
80
80
8C
70
ENDCHAR
STARTCHAR Dcaron
ENCODING 270
SWIDTH 600 0
DWIDTH 9 0
BBX 8 12 0 0
BITMAP
0A
0C
00
3E
13
11
21
21
21
42
46
F8
ENDCHAR
STARTCHAR dcaron
ENCODING 271
SWIDTH 600 0
DWIDTH 9 0
BBX 7 13 1 0
BITMAP
0A
0C
00
06
02
02
34
4C
84
84
88
98
6C
ENDCHAR
STARTCHAR Dcroat
ENCODING 272
SWIDTH 600 0
DWIDTH 9 0
BBX 8 9 0 0
BITMAP
3E
13
11
21
79
21
42
46
F8
ENDCHAR
STARTCHAR dcroat
ENCODING 273
SWIDTH 600 0
DWIDTH 9 0
BBX 9 10 1 0
BITMAP
0600
3F80
0200
3400
4C00
8400
8400
8800
9800
6C00
ENDCHAR
STARTCHAR Emacron
ENCODING 274
SWIDTH 600 0
DWIDTH 9 0
BBX 9 11 0 0
BITMAP
1E00
0000
3F80
1100
1100
2400
3C00
2400
4100
4200
FE00
ENDCHAR
STARTCHAR emacron
ENCODING 275
SWIDTH 600 0
DWIDTH 9 0
BBX 7 9 1 0
BITMAP
3C
00
1C
62
42
FE
80
8C
70
ENDCHAR
STARTCHAR Ebreve
ENCODING 276
SWIDTH 600 0
DWIDTH 9 0
BBX 9 12 0 0
BITMAP
0900
0E00
0000
3F80
1100
1100
2400
3C00
2400
4100
4200
FE00
ENDCHAR
STARTCHAR ebreve
ENCODING 277
SWIDTH 600 0
DWIDTH 9 0
BBX 7 10 1 0
BITMAP
24
38
00
1C
62
42
FE
80
8C
70
ENDCHAR
STARTCHAR Edotaccent
ENCODING 278
SWIDTH 600 0
DWIDTH 9 0
BBX 9 11 0 0
BITMAP
0400
0000
3F80
1100
1100
2400
3C00
2400
4100
4200
FE00
ENDCHAR
STARTCHAR edotaccent
ENCODING 279
SWIDTH 600 0
DWIDTH 9 0
BBX 7 9 1 0
BITMAP
10
00
1C
62
42
FE
80
8C
70
ENDCHAR
STARTCHAR Eogonek
ENCODING 280
SWIDTH 600 0
DWIDTH 9 0
BBX 9 11 0 -2
BITMAP
3F80
1100
1100
2400
3C00
2400
4100
4200
FE00
1000
1C00
ENDCHAR
STARTCHAR eogonek
ENCODING 281
SWIDTH 600 0
DWIDTH 9 0
BBX 7 9 1 -2
BITMAP
1C
62
42
FE
80
8C
70
20
38
ENDCHAR
STARTCHAR Ecaron
ENCODING 282
SWIDTH 600 0
DWIDTH 9 0
BBX 9 12 0 0
BITMAP
0A00
0C00
0000
3F80
1100
1100
2400
3C00
2400
4100
4200
FE00
ENDCHAR
STARTCHAR ecaron
ENCODING 283
SWIDTH 600 0
DWIDTH 9 0
BBX 7 10 1 0
BITMAP
14
18
00
1C
62
42
FE
80
8C
70
ENDCHAR
STARTCHAR Gcircumflex
ENCODING 284
SWIDTH 600 0
DWIDTH 9 0
BBX 7 12 1 0
BITMAP
0C
14
00
1E
62
42
80
80
9E
84
CC
70
ENDCHAR
STARTCHAR gcircumflex
ENCODING 285
SWIDTH 600 0
DWIDTH 9 0
BBX 8 13 0 -3
BITMAP
0C
14
00
19
26
42
42
44
4C
34
04
88
70
ENDCHAR
STARTCHAR Gbreve
ENCODING 286
SWIDTH 600 0
DWIDTH 9 0
BBX 7 12 1 0
BITMAP
24
38
00
1E
62
42
80
80
9E
84
CC
70
ENDCHAR
STARTCHAR gbreve
ENCODING 287
SWIDTH 600 0
DWIDTH 9 0
BBX 8 13 0 -3
BITMAP
12
1C
00
19
26
42
42
44
4C
34
04
88
70
ENDCHAR
STARTCHAR Gdotaccent
ENCODING 288
SWIDTH 600 0
DWIDTH 9 0
BBX 7 11 1 0
BITMAP
08
00
1E
62
42
80
80
9E
84
CC
70
ENDCHAR
STARTCHAR gdotaccent
ENCODING 289
SWIDTH 600 0
DWIDTH 9 0
BBX 8 12 0 -3
BITMAP
08
00
19
26
42
42
44
4C
34
04
88
70
ENDCHAR
STARTCHAR Gcommaaccent
ENCODING 290
SWIDTH 600 0
DWIDTH 9 0
BBX 7 14 1 -5
BITMAP
1E
62
42
80
80
9E
84
CC
70
00
30
30
60
40
ENDCHAR
STARTCHAR gcommaaccent
ENCODING 291
SWIDTH 600 0
DWIDTH 9 0
BBX 8 15 0 -3
BITMAP
18
18
0C
04
00
19
26
42
42
44
4C
34
04
88
70
ENDCHAR
STARTCHAR Hcircumflex
ENCODING 292
SWIDTH 600 0
DWIDTH 9 0
BBX 9 12 0 0
BITMAP
0600
0A00
0000
3B80
1100
1100
2200
3E00
2200
4400
4400
EE00
ENDCHAR
STARTCHAR hcircumflex
ENCODING 293
SWIDTH 600 0
DWIDTH 9 0
BBX 7 13 0 0
BITMAP
18
28
00
30
10
10
1C
32
22
22
44
44
EE
ENDCHAR
STARTCHAR Hbar
ENCODING 294
SWIDTH 600 0
DWIDTH 9 0
BBX 9 9 0 0
BITMAP
3B80
FF80
1100
2200
3E00
2200
4400
4400
EE00
ENDCHAR
STARTCHAR hbar
ENCODING 295
SWIDTH 600 0
DWIDTH 9 0
BBX 8 10 -1 0
BITMAP
18
FE
08
0E
19
11
11
22
22
77
ENDCHAR
STARTCHAR Itilde
ENCODING 296
SWIDTH 600 0
DWIDTH 9 0
BBX 7 12 1 0
BITMAP
0A
14
00
3E
08
08
10
10
10
20
20
F8
ENDCHAR
STARTCHAR itilde
ENCODING 297
SWIDTH 600 0
DWIDTH 9 0
BBX 5 10 2 0
BITMAP
28
50
00
70
10
10
20
20
20
F8
ENDCHAR
STARTCHAR Imacron
ENCODING 298
SWIDTH 600 0
DWIDTH 9 0
BBX 7 11 1 0
BITMAP
3C
00
3E
08
08
10
10
10
20
20
F8
ENDCHAR
STARTCHAR imacron
ENCODING 299
SWIDTH 600 0
DWIDTH 9 0
BBX 5 9 2 0
BITMAP
78
00
70
10
10
20
20
20
F8
ENDCHAR
STARTCHAR Ibreve
ENCODING 300
SWIDTH 600 0
DWIDTH 9 0
BBX 7 12 1 0
BITMAP
12
1C
00
3E
08
08
10
10
10
20
20
F8
ENDCHAR
STARTCHAR ibreve
ENCODING 301
SWIDTH 600 0
DWIDTH 9 0
BBX 5 10 2 0
BITMAP
48
70
00
70
10
10
20
20
20
F8
ENDCHAR
STARTCHAR Iogonek
ENCODING 302
SWIDTH 600 0
DWIDTH 9 0
BBX 7 11 1 -2
BITMAP
3E
08
08
10
10
10
20
20
F8
40
70
ENDCHAR
STARTCHAR iogonek
ENCODING 303
SWIDTH 600 0
DWIDTH 9 0
BBX 5 12 2 -2
BITMAP
08
08
00
70
10
10
20
20
20
F8
40
70
ENDCHAR
STARTCHAR Idotaccent
ENCODING 304
SWIDTH 600 0
DWIDTH 9 0
BBX 7 11 1 0
BITMAP
08
00
3E
08
08
10
10
10
20
20
F8
ENDCHAR
STARTCHAR dotlessi
ENCODING 305
SWIDTH 600 0
DWIDTH 9 0
BBX 5 7 2 0
BITMAP
70
10
10
20
20
20
F8
ENDCHAR
STARTCHAR IJ
ENCODING 306
SWIDTH 600 0
DWIDTH 9 0
BBX 11 9 1 0
BITMAP
3FE0
0880
0880
1100
1100
1100
2200
2200
FC00
ENDCHAR
STARTCHAR ij
ENCODING 307
SWIDTH 600 0
DWIDTH 9 0
BBX 9 13 2 -3
BITMAP
0880
0880
0000
7F00
1100
1100
2100
2200
2200
FA00
0400
0400
7800
ENDCHAR
STARTCHAR Jcircumflex
ENCODING 308
SWIDTH 600 0
DWIDTH 9 0
BBX 9 12 0 0
BITMAP
0600
0A00
0000
1F80
0200
0200
0400
0400
4400
8800
8800
7000
ENDCHAR
STARTCHAR jcircumflex
ENCODING 309
SWIDTH 600 0
DWIDTH 9 0
BBX 8 13 -1 -3
BITMAP
06
0A
00
1E
02
02
02
04
04
04
08
08
F0
ENDCHAR
STARTCHAR Kcommaaccent
ENCODING 310
SWIDTH 600 0
DWIDTH 9 0
BBX 9 14 0 -5
BITMAP
3B80
1100
1200
2400
3800
2400
4400
4400
E600
0000
1800
1800
3000
2000
ENDCHAR
STARTCHAR kcommaaccent
ENCODING 311
SWIDTH 600 0
DWIDTH 9 0
BBX 8 15 0 -5
BITMAP
30
10
10
17
24
28
30
48
44
CE
00
18
18
30
20
ENDCHAR
STARTCHAR kgreenlandic
ENCODING 312
SWIDTH 600 0
DWIDTH 9 0
BBX 8 7 0 0
BITMAP
17
24
28
30
48
44
CE
ENDCHAR
STARTCHAR Lacute
ENCODING 313
SWIDTH 600 0
DWIDTH 9 0
BBX 8 12 0 0
BITMAP
06
18
00
3E
08
08
10
10
11
21
22
FE
ENDCHAR
STARTCHAR lacute
ENCODING 314
SWIDTH 600 0
DWIDTH 9 0
BBX 6 13 1 0
BITMAP
0C
30
00
38
08
08
10
10
10
10
20
20
FC
ENDCHAR
STARTCHAR Lcommaaccent
ENCODING 315
SWIDTH 600 0
DWIDTH 9 0
BBX 8 14 0 -5
BITMAP
3E
08
08
10
10
11
21
22
FE
00
18
18
30
20
ENDCHAR
STARTCHAR lcommaaccent
ENCODING 316
SWIDTH 600 0
DWIDTH 9 0
BBX 6 15 1 -5
BITMAP
38
08
08
10
10
10
10
20
20
FC
00
30
30
60
40
ENDCHAR
STARTCHAR Lcaron
ENCODING 317
SWIDTH 600 0
DWIDTH 9 0
BBX 8 12 0 0
BITMAP
14
18
00
3E
08
08
10
10
11
21
22
FE
ENDCHAR
STARTCHAR lcaron
ENCODING 318
SWIDTH 600 0
DWIDTH 9 0
BBX 6 13 1 0
BITMAP
28
30
00
38
08
08
10
10
10
10
20
20
FC
ENDCHAR
STARTCHAR Ldot
ENCODING 319
SWIDTH 600 0
DWIDTH 9 0
BBX 8 9 0 0
BITMAP
3E
08
08
10
1C
1D
21
22
FE
ENDCHAR
STARTCHAR ldot
ENCODING 320
SWIDTH 600 0
DWIDTH 9 0
BBX 7 10 1 0
BITMAP
38
08
08
10
10
16
16
20
20
FC
ENDCHAR
STARTCHAR Lslash
ENCODING 321
SWIDTH 600 0
DWIDTH 9 0
BBX 8 9 0 0
BITMAP
3E
08
08
1C
70
11
21
22
FE
ENDCHAR
STARTCHAR lslash
ENCODING 322
SWIDTH 600 0
DWIDTH 9 0
BBX 6 9 1 0
BITMAP
38
08
08
10
1C
70
20
20
FC
ENDCHAR
STARTCHAR Nacute
ENCODING 323
SWIDTH 600 0
DWIDTH 9 0
BBX 10 12 0 0
BITMAP
0300
0C00
0000
71C0
1080
1080
2900
2900
2500
4500
4200
F200
ENDCHAR
STARTCHAR nacute
ENCODING 324
SWIDTH 600 0
DWIDTH 9 0
BBX 8 10 0 0
BITMAP
06
18
00
6E
31
21
21
42
42
E7
ENDCHAR
STARTCHAR Ncommaaccent
ENCODING 325
SWIDTH 600 0
DWIDTH 9 0
BBX 10 14 0 -5
BITMAP
71C0
1080
1080
2900
2900
2500
4500
4200
F200
0000
1800
1800
3000
2000
ENDCHAR
STARTCHAR ncommaaccent
ENCODING 326
SWIDTH 600 0
DWIDTH 9 0
BBX 8 12 0 -5
BITMAP
6E
31
21
21
42
42
E7
00
18
18
30
20
ENDCHAR
STARTCHAR Ncaron
ENCODING 327
SWIDTH 600 0
DWIDTH 9 0
BBX 10 12 0 0
BITMAP
0A00
0C00
0000
71C0
1080
1080
2900
2900
2500
4500
4200
F200
ENDCHAR
STARTCHAR ncaron
ENCODING 328
SWIDTH 600 0
DWIDTH 9 0
BBX 8 10 0 0
BITMAP
14
18
00
6E
31
21
21
42
42
E7
ENDCHAR
STARTCHAR napostrophe
ENCODING 329
SWIDTH 600 0
DWIDTH 9 0
BBX 10 10 -2 0
BITMAP
6000
6000
C000
9B80
0C40
0840
0840
1080
1080
39C0
ENDCHAR
STARTCHAR Eng
ENCODING 330
SWIDTH 600 0
DWIDTH 9 0
BBX 10 12 0 -3
BITMAP
71C0
1080
1080
2900
2900
2500
4500
4300
F300
0200
0200
3C00
ENDCHAR
STARTCHAR eng
ENCODING 331
SWIDTH 600 0
DWIDTH 9 0
BBX 8 10 0 -3
BITMAP
6E
31
21
21
42
42
E2
04
04
78
ENDCHAR
STARTCHAR Omacron
ENCODING 332
SWIDTH 600 0
DWIDTH 9 0
BBX 7 11 1 0
BITMAP
3C
00
1C
66
42
82
82
82
84
CC
70
ENDCHAR
STARTCHAR omacron
ENCODING 333
SWIDTH 600 0
DWIDTH 9 0
BBX 7 9 1 0
BITMAP
3C
00
1C
62
42
82
84
8C
70
ENDCHAR
STARTCHAR Obreve
ENCODING 334
SWIDTH 600 0
DWIDTH 9 0
BBX 7 12 1 0
BITMAP
24
38
00
1C
66
42
82
82
82
84
CC
70
ENDCHAR
STARTCHAR obreve
ENCODING 335
SWIDTH 600 0
DWIDTH 9 0
BBX 7 10 1 0
BITMAP
24
38
00
1C
62
42
82
84
8C
70
ENDCHAR
STARTCHAR Ohungarumlaut
ENCODING 336
SWIDTH 600 0
DWIDTH 9 0
BBX 7 12 1 0
BITMAP
12
24
00
1C
66
42
82
82
82
84
CC
70
ENDCHAR
STARTCHAR ohungarumlaut
ENCODING 337
SWIDTH 600 0
DWIDTH 9 0
BBX 7 10 1 0
BITMAP
12
24
00
1C
62
42
82
84
8C
70
ENDCHAR
STARTCHAR OE
ENCODING 338
SWIDTH 600 0
DWIDTH 9 0
BBX 10 9 0 0
BITMAP
1FC0
2440
4400
4900
8F00
8900
9000
9100
7F00
ENDCHAR
STARTCHAR oe
ENCODING 339
SWIDTH 600 0
DWIDTH 9 0
BBX 9 7 0 0
BITMAP
1B00
6480
4480
8F00
8800
8900
7600
ENDCHAR
STARTCHAR Racute
ENCODING 340
SWIDTH 600 0
DWIDTH 9 0
BBX 8 12 0 0
BITMAP
06
18
00
3E
11
11
21
22
3C
44
42
F3
ENDCHAR
STARTCHAR racute
ENCODING 341
SWIDTH 600 0
DWIDTH 9 0
BBX 8 10 0 0
BITMAP
06
18
00
37
18
10
10
20
20
FC
ENDCHAR
STARTCHAR Rcommaaccent
ENCODING 342
SWIDTH 600 0
DWIDTH 9 0
BBX 8 14 0 -5
BITMAP
3E
11
11
21
22
3C
44
42
F3
00
18
18
30
20
ENDCHAR
STARTCHAR rcommaaccent
ENCODING 343
SWIDTH 600 0
DWIDTH 9 0
BBX 8 12 0 -5
BITMAP
37
18
10
10
20
20
FC
00
30
30
60
40
ENDCHAR
STARTCHAR Rcaron
ENCODING 344
SWIDTH 600 0
DWIDTH 9 0
BBX 8 12 0 0
BITMAP
14
18
00
3E
11
11
21
22
3C
44
42
F3
ENDCHAR
STARTCHAR rcaron
ENCODING 345
SWIDTH 600 0
DWIDTH 9 0
BBX 8 10 0 0
BITMAP
14
18
00
37
18
10
10
20
20
FC
ENDCHAR
STARTCHAR Sacute
ENCODING 346
SWIDTH 600 0
DWIDTH 9 0
BBX 8 12 0 0
BITMAP
06
18
00
1D
33
22
20
1C
02
42
C6
BC
ENDCHAR
STARTCHAR sacute
ENCODING 347
SWIDTH 600 0
DWIDTH 9 0
BBX 7 10 0 0
BITMAP
06
18
00
1E
22
20
18
04
84
F8
ENDCHAR
STARTCHAR Scircumflex
ENCODING 348
SWIDTH 600 0
DWIDTH 9 0
BBX 8 12 0 0
BITMAP
0C
14
00
1D
33
22
20
1C
02
42
C6
BC
ENDCHAR
STARTCHAR scircumflex
ENCODING 349
SWIDTH 600 0
DWIDTH 9 0
BBX 7 10 0 0
BITMAP
0C
14
00
1E
22
20
18
04
84
F8
ENDCHAR
STARTCHAR Scedilla
ENCODING 350
SWIDTH 600 0
DWIDTH 9 0
BBX 8 12 0 -3
BITMAP
1D
33
22
20
1C
02
42
C6
BC
18
08
70
ENDCHAR
STARTCHAR scedilla
ENCODING 351
SWIDTH 600 0
DWIDTH 9 0
BBX 7 10 0 -3
BITMAP
1E
22
20
18
04
84
F8
30
10
E0
ENDCHAR
STARTCHAR Scaron
ENCODING 352
SWIDTH 600 0
DWIDTH 9 0
BBX 8 12 0 0
BITMAP
0A
0C
00
1D
33
22
20
1C
02
C2
C6
BC
ENDCHAR
STARTCHAR scaron
ENCODING 353
SWIDTH 600 0
DWIDTH 9 0
BBX 7 10 0 0
BITMAP
0A
0C
00
1E
22
20
18
04
84
F8
ENDCHAR
STARTCHAR Tcommaaccent
ENCODING 354
SWIDTH 600 0
DWIDTH 9 0
BBX 9 12 1 -3
BITMAP
7F80
4880
8900
9100
1000
1000
2000
2000
F800
1800
0800
7000
ENDCHAR
STARTCHAR tcommaaccent
ENCODING 355
SWIDTH 600 0
DWIDTH 9 0
BBX 7 12 1 -3
BITMAP
10
10
FE
20
20
40
40
44
38
18
08
70
ENDCHAR
STARTCHAR Tcaron
ENCODING 356
SWIDTH 600 0
DWIDTH 9 0
BBX 9 12 1 0
BITMAP
0A00
0C00
0000
7F80
4880
8900
9100
1000
1000
2000
2000
F800
ENDCHAR
STARTCHAR tcaron
ENCODING 357
SWIDTH 600 0
DWIDTH 9 0
BBX 7 12 1 0
BITMAP
28
30
00
10
10
FE
20
20
40
40
44
38
ENDCHAR
STARTCHAR Tbar
ENCODING 358
SWIDTH 600 0
DWIDTH 9 0
BBX 9 9 1 0
BITMAP
7F80
4880
8900
9100
7F00
1000
2000
2000
F800
ENDCHAR
STARTCHAR tbar
ENCODING 359
SWIDTH 600 0
DWIDTH 9 0
BBX 7 9 1 0
BITMAP
10
10
FE
20
20
FE
40
44
38
ENDCHAR
STARTCHAR Utilde
ENCODING 360
SWIDTH 600 0
DWIDTH 9 0
BBX 8 12 1 0
BITMAP
0A
14
00
77
22
22
44
44
44
88
88
70
ENDCHAR
STARTCHAR utilde
ENCODING 361
SWIDTH 600 0
DWIDTH 9 0
BBX 6 10 1 0
BITMAP
28
50
00
CC
44
44
88
88
98
6C
ENDCHAR
STARTCHAR Umacron
ENCODING 362
SWIDTH 600 0
DWIDTH 9 0
BBX 8 11 1 0
BITMAP
3C
00
77
22
22
44
44
44
88
88
70
ENDCHAR
STARTCHAR umacron
ENCODING 363
SWIDTH 600 0
DWIDTH 9 0
BBX 6 9 1 0
BITMAP
78
00
CC
44
44
88
88
98
6C
ENDCHAR
STARTCHAR Ubreve
ENCODING 364
SWIDTH 600 0
DWIDTH 9 0
BBX 8 12 1 0
BITMAP
12
1C
00
77
22
22
44
44
44
88
88
70
ENDCHAR
STARTCHAR ubreve
ENCODING 365
SWIDTH 600 0
DWIDTH 9 0
BBX 6 10 1 0
BITMAP
48
70
00
CC
44
44
88
88
98
6C
ENDCHAR
STARTCHAR Uring
ENCODING 366
SWIDTH 600 0
DWIDTH 9 0
BBX 8 13 1 0
BITMAP
0C
14
18
00
77
22
22
44
44
44
88
88
70
ENDCHAR
STARTCHAR uring
ENCODING 367
SWIDTH 600 0
DWIDTH 9 0
BBX 6 11 1 0
BITMAP
18
28
30
00
CC
44
44
88
88
98
6C
ENDCHAR
STARTCHAR Uhungarumlaut
ENCODING 368
SWIDTH 600 0
DWIDTH 9 0
BBX 8 12 1 0
BITMAP
12
24
00
77
22
22
44
44
44
88
88
70
ENDCHAR
STARTCHAR uhungarumlaut
ENCODING 369
SWIDTH 600 0
DWIDTH 9 0
BBX 6 10 1 0
BITMAP
24
48
00
CC
44
44
88
88
98
6C
ENDCHAR
STARTCHAR Uogonek
ENCODING 370
SWIDTH 600 0
DWIDTH 9 0
BBX 8 11 1 -2
BITMAP
77
22
22
44
44
44
88
88
70
20
38
ENDCHAR
STARTCHAR uogonek
ENCODING 371
SWIDTH 600 0
DWIDTH 9 0
BBX 6 9 1 -2
BITMAP
CC
44
44
88
88
98
7C
20
38
ENDCHAR
STARTCHAR Wcircumflex
ENCODING 372
SWIDTH 600 0
DWIDTH 9 0
BBX 10 12 0 0
BITMAP
0C00
1400
0000
E1C0
4080
4880
4900
5500
5500
6600
6600
4400
ENDCHAR
STARTCHAR wcircumflex
ENCODING 373
SWIDTH 600 0
DWIDTH 9 0
BBX 10 10 0 0
BITMAP
0C00
1400
0000
E1C0
4880
4900
5900
6600
6600
4400
ENDCHAR
STARTCHAR Ycircumflex
ENCODING 374
SWIDTH 600 0
DWIDTH 9 0
BBX 8 12 1 0
BITMAP
0C
14
00
77
22
24
28
10
10
20
20
F8
ENDCHAR
STARTCHAR ycircumflex
ENCODING 375
SWIDTH 600 0
DWIDTH 9 0
BBX 9 13 0 -3
BITMAP
0C00
1400
0000
7380
2100
2200
1400
1400
0800
1000
1000
2000
F000
ENDCHAR
STARTCHAR Ydieresis
ENCODING 376
SWIDTH 600 0
DWIDTH 9 0
BBX 8 11 1 0
BITMAP
12
00
77
22
24
28
10
10
20
20
F8
ENDCHAR
STARTCHAR Zacute
ENCODING 377
SWIDTH 600 0
DWIDTH 9 0
BBX 7 12 1 0
BITMAP
06
18
00
3E
42
44
08
10
20
44
84
F8
ENDCHAR
STARTCHAR zacute
ENCODING 378
SWIDTH 600 0
DWIDTH 9 0
BBX 7 10 1 0
BITMAP
0C
30
00
7E
44
08
10
20
44
FC
ENDCHAR
STARTCHAR Zdotaccent
ENCODING 379
SWIDTH 600 0
DWIDTH 9 0
BBX 7 11 1 0
BITMAP
10
00
3E
42
44
08
10
20
44
84
F8
ENDCHAR
STARTCHAR zdotaccent
ENCODING 380
SWIDTH 600 0
DWIDTH 9 0
BBX 7 9 1 0
BITMAP
10
00
7E
44
08
10
20
44
FC
ENDCHAR
STARTCHAR Zcaron
ENCODING 381
SWIDTH 600 0
DWIDTH 9 0
BBX 7 12 1 0
BITMAP
14
18
00
3E
42
44
08
10
20
44
84
F8
ENDCHAR
STARTCHAR zcaron
ENCODING 382
SWIDTH 600 0
DWIDTH 9 0
BBX 7 10 1 0
BITMAP
14
18
00
7E
44
08
10
20
44
FC
ENDCHAR
STARTCHAR uni0186
ENCODING 390
SWIDTH 600 0
DWIDTH 9 0
BBX 7 9 1 0
BITMAP
1C
66
42
02
02
02
84
8C
F0
ENDCHAR
STARTCHAR uni0189
ENCODING 393
SWIDTH 600 0
DWIDTH 9 0
BBX 8 9 0 0
BITMAP
3E
13
11
21
79
21
42
46
F8
ENDCHAR
STARTCHAR uni018E
ENCODING 398
SWIDTH 600 0
DWIDTH 9 0
BBX 9 9 0 0
BITMAP
3F80
2100
4100
1200
1E00
1200
4400
4400
FE00
ENDCHAR
STARTCHAR florin
ENCODING 402
SWIDTH 600 0
DWIDTH 9 0
BBX 8 11 0 -2
BITMAP
07
08
08
3E
08
08
08
10
10
10
E0
ENDCHAR
STARTCHAR uni0197
ENCODING 407
SWIDTH 600 0
DWIDTH 9 0
BBX 7 9 1 0
BITMAP
3E
08
08
10
FE
10
20
20
F8
ENDCHAR
STARTCHAR uni019A
ENCODING 410
SWIDTH 600 0
DWIDTH 9 0
BBX 7 10 1 0
BITMAP
38
08
08
10
FE
10
10
20
20
FC
ENDCHAR
STARTCHAR uni019D
ENCODING 413
SWIDTH 600 0
DWIDTH 9 0
BBX 14 12 -4 -3
BITMAP
071C
0108
0108
0290
0290
0250
0450
0420
0420
0800
0800
F000
ENDCHAR
STARTCHAR uni019F
ENCODING 415
SWIDTH 600 0
DWIDTH 9 0
BBX 7 9 1 0
BITMAP
1C
66
42
82
FE
82
84
CC
70
ENDCHAR
STARTCHAR Ohorn
ENCODING 416
SWIDTH 600 0
DWIDTH 9 0
BBX 10 9 1 0
BITMAP
1CC0
66C0
4380
8300
8200
8200
8400
CC00
7000
ENDCHAR
STARTCHAR ohorn
ENCODING 417
SWIDTH 600 0
DWIDTH 9 0
BBX 10 7 1 0
BITMAP
1CC0
62C0
4380
8300
8400
8C00
7000
ENDCHAR
STARTCHAR Uhorn
ENCODING 431
SWIDTH 600 0
DWIDTH 9 0
BBX 11 9 1 0
BITMAP
7760
2260
22C0
4480
4400
4400
8800
8800
7000
ENDCHAR
STARTCHAR uhorn
ENCODING 432
SWIDTH 600 0
DWIDTH 9 0
BBX 9 7 1 0
BITMAP
CD80
4580
4700
8A00
8800
9800
6C00
ENDCHAR
STARTCHAR uni01B5
ENCODING 437
SWIDTH 600 0
DWIDTH 9 0
BBX 7 9 1 0
BITMAP
3E
42
44
08
FE
20
44
84
F8
ENDCHAR
STARTCHAR uni01B6
ENCODING 438
SWIDTH 600 0
DWIDTH 9 0
BBX 7 7 1 0
BITMAP
7E
44
08
FE
20
44
FC
ENDCHAR
STARTCHAR uni01BB
ENCODING 443
SWIDTH 600 0
DWIDTH 9 0
BBX 7 10 1 0
BITMAP
1C
22
22
02
FE
08
10
20
42
FC
ENDCHAR
STARTCHAR uni01BC
ENCODING 444
SWIDTH 600 0
DWIDTH 9 0
BBX 7 10 1 0
BITMAP
3E
20
20
40
78
04
04
04
88
70
ENDCHAR
STARTCHAR uni01C0
ENCODING 448
SWIDTH 600 0
DWIDTH 9 0
BBX 3 11 3 -2
BITMAP
20
20
20
40
40
40
40
80
80
80
80
ENDCHAR
STARTCHAR uni01C2
ENCODING 450
SWIDTH 600 0
DWIDTH 9 0
BBX 7 11 1 -1
BITMAP
08
08
08
10
7E
10
FC
20
20
20
20
ENDCHAR
STARTCHAR uni01C3
ENCODING 451
SWIDTH 600 0
DWIDTH 9 0
BBX 5 9 2 0
BITMAP
18
18
10
30
20
20
00
C0
C0
ENDCHAR
STARTCHAR uni01CD
ENCODING 461
SWIDTH 600 0
DWIDTH 9 0
BBX 8 12 0 0
BITMAP
0A
0C
00
1E
06
0A
0A
12
3E
22
42
EF
ENDCHAR
STARTCHAR uni01CE
ENCODING 462
SWIDTH 600 0
DWIDTH 9 0
BBX 6 10 1 0
BITMAP
28
30
00
38
44
04
78
88
88
74
ENDCHAR
STARTCHAR uni01CF
ENCODING 463
SWIDTH 600 0
DWIDTH 9 0
BBX 7 12 1 0
BITMAP
14
18
00
3E
08
08
10
10
10
20
20
F8
ENDCHAR
STARTCHAR uni01D0
ENCODING 464
SWIDTH 600 0
DWIDTH 9 0
BBX 5 10 2 0
BITMAP
28
30
00
70
10
10
20
20
20
F8
ENDCHAR
STARTCHAR uni01D1
ENCODING 465
SWIDTH 600 0
DWIDTH 9 0
BBX 7 12 1 0
BITMAP
14
18
00
1C
66
42
82
82
82
84
CC
70
ENDCHAR
STARTCHAR uni01D2
ENCODING 466
SWIDTH 600 0
DWIDTH 9 0
BBX 7 10 1 0
BITMAP
14
18
00
1C
62
42
82
84
8C
70
ENDCHAR
STARTCHAR uni01D3
ENCODING 467
SWIDTH 600 0
DWIDTH 9 0
BBX 8 12 1 0
BITMAP
14
18
00
77
22
22
44
44
44
88
88
70
ENDCHAR
STARTCHAR uni01D4
ENCODING 468
SWIDTH 600 0
DWIDTH 9 0
BBX 6 10 1 0
BITMAP
28
30
00
CC
44
44
88
88
98
6C
ENDCHAR
STARTCHAR uni01D5
ENCODING 469
SWIDTH 600 0
DWIDTH 9 0
BBX 8 13 1 0
BITMAP
3C
00
12
00
77
22
22
44
44
44
88
88
70
ENDCHAR
STARTCHAR uni01D6
ENCODING 470
SWIDTH 600 0
DWIDTH 9 0
BBX 6 11 1 0
BITMAP
78
00
48
00
CC
44
44
88
88
98
6C
ENDCHAR
STARTCHAR uni01D7
ENCODING 471
SWIDTH 600 0
DWIDTH 9 0
BBX 8 14 1 0
BITMAP
06
18
00
12
00
77
22
22
44
44
44
88
88
70
ENDCHAR
STARTCHAR uni01D8
ENCODING 472
SWIDTH 600 0
DWIDTH 9 0
BBX 6 12 1 0
BITMAP
0C
30
00
48
00
CC
44
44
88
88
98
6C
ENDCHAR
STARTCHAR uni01D9
ENCODING 473
SWIDTH 600 0
DWIDTH 9 0
BBX 8 14 1 0
BITMAP
14
18
00
12
00
77
22
22
44
44
44
88
88
70
ENDCHAR
STARTCHAR uni01DA
ENCODING 474
SWIDTH 600 0
DWIDTH 9 0
BBX 6 12 1 0
BITMAP
28
30
00
48
00
CC
44
44
88
88
98
6C
ENDCHAR
STARTCHAR uni01DB
ENCODING 475
SWIDTH 600 0
DWIDTH 9 0
BBX 8 14 1 0
BITMAP
30
0C
00
12
00
77
22
22
44
44
44
88
88
70
ENDCHAR
STARTCHAR uni01DC
ENCODING 476
SWIDTH 600 0
DWIDTH 9 0
BBX 6 12 1 0
BITMAP
C0
30
00
48
00
CC
44
44
88
88
98
6C
ENDCHAR
STARTCHAR uni01DD
ENCODING 477
SWIDTH 600 0
DWIDTH 9 0
BBX 7 7 1 0
BITMAP
1C
62
02
FE
84
8C
70
ENDCHAR
STARTCHAR uni01DE
ENCODING 478
SWIDTH 600 0
DWIDTH 9 0
BBX 8 13 0 0
BITMAP
1E
00
0A
00
1E
06
0A
0A
12
3E
22
42
EF
ENDCHAR
STARTCHAR uni01DF
ENCODING 479
SWIDTH 600 0
DWIDTH 9 0
BBX 6 11 1 0
BITMAP
78
00
24
00
38
44
04
78
88
88
74
ENDCHAR
STARTCHAR uni01E0
ENCODING 480
SWIDTH 600 0
DWIDTH 9 0
BBX 8 13 0 0
BITMAP
1E
00
08
00
1E
06
0A
0A
12
3E
22
42
EF
ENDCHAR
STARTCHAR uni01E1
ENCODING 481
SWIDTH 600 0
DWIDTH 9 0
BBX 6 11 1 0
BITMAP
78
00
10
00
38
44
04
78
88
88
74
ENDCHAR
STARTCHAR uni01E2
ENCODING 482
SWIDTH 600 0
DWIDTH 9 0
BBX 12 11 -2 0
BITMAP
0780
0000
0FF0
0510
0900
0A40
13C0
3E40
2400
4440
F7C0
ENDCHAR
STARTCHAR uni01E3
ENCODING 483
SWIDTH 600 0
DWIDTH 9 0
BBX 9 9 0 0
BITMAP
1E00
0000
3B00
4480
0480
7F00
8800
8900
7600
ENDCHAR
STARTCHAR uni01E4
ENCODING 484
SWIDTH 600 0
DWIDTH 9 0
BBX 9 9 1 0
BITMAP
1E00
6200
4200
8000
8000
BF80
8400
CC00
7000
ENDCHAR
STARTCHAR uni01E5
ENCODING 485
SWIDTH 600 0
DWIDTH 9 0
BBX 8 10 0 -3
BITMAP
19
26
42
42
44
4C
34
FF
88
70
ENDCHAR
STARTCHAR Gcaron
ENCODING 486
SWIDTH 600 0
DWIDTH 9 0
BBX 7 12 1 0
BITMAP
14
18
00
1E
62
42
80
80
9E
84
CC
70
ENDCHAR
STARTCHAR gcaron
ENCODING 487
SWIDTH 600 0
DWIDTH 9 0
BBX 8 13 0 -3
BITMAP
14
18
00
19
26
42
42
44
4C
34
04
88
70
ENDCHAR
STARTCHAR uni01E8
ENCODING 488
SWIDTH 600 0
DWIDTH 9 0
BBX 9 12 0 0
BITMAP
0A00
0C00
0000
3B80
1100
1200
2400
3800
2400
4400
4400
E600
ENDCHAR
STARTCHAR uni01E9
ENCODING 489
SWIDTH 600 0
DWIDTH 9 0
BBX 8 13 0 0
BITMAP
28
30
00
30
10
10
17
24
28
30
48
44
CE
ENDCHAR
STARTCHAR uni01EA
ENCODING 490
SWIDTH 600 0
DWIDTH 9 0
BBX 7 11 1 -2
BITMAP
1C
66
42
82
82
82
84
CC
70
20
38
ENDCHAR
STARTCHAR uni01EB
ENCODING 491
SWIDTH 600 0
DWIDTH 9 0
BBX 7 9 1 -2
BITMAP
1C
62
42
82
84
8C
70
20
38
ENDCHAR
STARTCHAR uni01EC
ENCODING 492
SWIDTH 600 0
DWIDTH 9 0
BBX 7 13 1 -2
BITMAP
3C
00
1C
66
42
82
82
82
84
CC
70
20
38
ENDCHAR
STARTCHAR uni01ED
ENCODING 493
SWIDTH 600 0
DWIDTH 9 0
BBX 7 11 1 -2
BITMAP
3C
00
1C
62
42
82
84
8C
70
20
38
ENDCHAR
STARTCHAR uni01F0
ENCODING 496
SWIDTH 600 0
DWIDTH 9 0
BBX 8 13 -1 -3
BITMAP
0A
0C
00
1E
02
02
02
04
04
04
08
08
F0
ENDCHAR
STARTCHAR uni01F4
ENCODING 500
SWIDTH 600 0
DWIDTH 9 0
BBX 7 12 1 0
BITMAP
06
18
00
1E
62
42
80
80
9E
84
CC
70
ENDCHAR
STARTCHAR uni01F5
ENCODING 501
SWIDTH 600 0
DWIDTH 9 0
BBX 8 13 0 -3
BITMAP
06
18
00
19
26
42
42
44
4C
34
04
88
70
ENDCHAR
STARTCHAR uni01F8
ENCODING 504
SWIDTH 600 0
DWIDTH 9 0
BBX 10 12 0 0
BITMAP
1800
0600
0000
71C0
1080
1080
2900
2900
2500
4500
4200
F200
ENDCHAR
STARTCHAR uni01F9
ENCODING 505
SWIDTH 600 0
DWIDTH 9 0
BBX 8 10 0 0
BITMAP
30
0C
00
6E
31
21
21
42
42
E7
ENDCHAR
STARTCHAR Aringacute
ENCODING 506
SWIDTH 600 0
DWIDTH 9 0
BBX 8 15 0 0
BITMAP
03
0C
00
03
05
06
1E
06
0A
0A
12
3E
22
42
EF
ENDCHAR
STARTCHAR aringacute
ENCODING 507
SWIDTH 600 0
DWIDTH 9 0
BBX 7 14 1 0
BITMAP
06
18
00
0C
14
18
00
38
44
04
78
88
88
74
ENDCHAR
STARTCHAR AEacute
ENCODING 508
SWIDTH 600 0
DWIDTH 9 0
BBX 12 12 -2 0
BITMAP
00C0
0300
0000
0FF0
0510
0900
0A40
13C0
3E40
2400
4440
F7C0
ENDCHAR
STARTCHAR aeacute
ENCODING 509
SWIDTH 600 0
DWIDTH 9 0
BBX 9 10 0 0
BITMAP
0300
0C00
0000
3B00
4480
0480
7F00
8800
8900
7600
ENDCHAR
STARTCHAR Oslashacute
ENCODING 510
SWIDTH 600 0
DWIDTH 9 0
BBX 9 12 0 0
BITMAP
0300
0C00
0000
0E80
3300
2300
4500
4900
5100
6200
6600
B800
ENDCHAR
STARTCHAR oslashacute
ENCODING 511
SWIDTH 600 0
DWIDTH 9 0
BBX 9 10 0 0
BITMAP
0300
0C00
0000
0E80
3300
2500
4900
5200
6600
B800
ENDCHAR
STARTCHAR Scommaaccent
ENCODING 536
SWIDTH 600 0
DWIDTH 9 0
BBX 8 14 0 -5
BITMAP
1D
33
22
20
1C
02
42
C6
BC
00
18
18
30
20
ENDCHAR
STARTCHAR scommaaccent
ENCODING 537
SWIDTH 600 0
DWIDTH 9 0
BBX 7 12 0 -5
BITMAP
1E
22
20
18
04
84
F8
00
30
30
60
40
ENDCHAR
STARTCHAR Tcommaaccent
ENCODING 538
SWIDTH 600 0
DWIDTH 9 0
BBX 9 14 1 -5
BITMAP
7F80
4880
8900
9100
1000
1000
2000
2000
F800
0000
3000
3000
6000
4000
ENDCHAR
STARTCHAR tcommaaccent
ENCODING 539
SWIDTH 600 0
DWIDTH 9 0
BBX 7 14 1 -5
BITMAP
10
10
FE
20
20
40
40
44
38
00
30
30
60
40
ENDCHAR
STARTCHAR uni021E
ENCODING 542
SWIDTH 600 0
DWIDTH 9 0
BBX 9 12 0 0
BITMAP
0A00
0C00
0000
3B80
1100
1100
2200
3E00
2200
4400
4400
EE00
ENDCHAR
STARTCHAR uni021F
ENCODING 543
SWIDTH 600 0
DWIDTH 9 0
BBX 7 13 0 0
BITMAP
28
30
00
30
10
10
1C
32
22
22
44
44
EE
ENDCHAR
STARTCHAR uni0226
ENCODING 550
SWIDTH 600 0
DWIDTH 9 0
BBX 8 11 0 0
BITMAP
08
00
1E
06
0A
0A
12
3E
22
42
EF
ENDCHAR
STARTCHAR uni0227
ENCODING 551
SWIDTH 600 0
DWIDTH 9 0
BBX 6 9 1 0
BITMAP
10
00
38
44
04
78
88
88
74
ENDCHAR
STARTCHAR uni0228
ENCODING 552
SWIDTH 600 0
DWIDTH 9 0
BBX 9 12 0 -3
BITMAP
3F80
1100
1100
2400
3C00
2400
4100
4200
FE00
1800
0800
7000
ENDCHAR
STARTCHAR uni0229
ENCODING 553
SWIDTH 600 0
DWIDTH 9 0
BBX 7 10 1 -3
BITMAP
1C
62
42
FE
80
8C
70
18
08
70
ENDCHAR
STARTCHAR uni022A
ENCODING 554
SWIDTH 600 0
DWIDTH 9 0
BBX 7 13 1 0
BITMAP
3C
00
12
00
1C
66
42
82
82
82
84
CC
70
ENDCHAR
STARTCHAR uni022B
ENCODING 555
SWIDTH 600 0
DWIDTH 9 0
BBX 7 11 1 0
BITMAP
3C
00
12
00
1C
62
42
82
84
8C
70
ENDCHAR
STARTCHAR uni022C
ENCODING 556
SWIDTH 600 0
DWIDTH 9 0
BBX 7 14 1 0
BITMAP
3C
00
0A
14
00
1C
66
42
82
82
82
84
CC
70
ENDCHAR
STARTCHAR uni022D
ENCODING 557
SWIDTH 600 0
DWIDTH 9 0
BBX 7 12 1 0
BITMAP
1E
00
0A
14
00
1C
62
42
82
84
8C
70
ENDCHAR
STARTCHAR uni022E
ENCODING 558
SWIDTH 600 0
DWIDTH 9 0
BBX 7 11 1 0
BITMAP
10
00
1C
66
42
82
82
82
84
CC
70
ENDCHAR
STARTCHAR uni022F
ENCODING 559
SWIDTH 600 0
DWIDTH 9 0
BBX 7 9 1 0
BITMAP
10
00
1C
62
42
82
84
8C
70
ENDCHAR
STARTCHAR uni0230
ENCODING 560
SWIDTH 600 0
DWIDTH 9 0
BBX 7 13 1 0
BITMAP
3C
00
10
00
1C
66
42
82
82
82
84
CC
70
ENDCHAR
STARTCHAR uni0231
ENCODING 561
SWIDTH 600 0
DWIDTH 9 0
BBX 7 11 1 0
BITMAP
3C
00
10
00
1C
62
42
82
84
8C
70
ENDCHAR
STARTCHAR uni0232
ENCODING 562
SWIDTH 600 0
DWIDTH 9 0
BBX 8 11 1 0
BITMAP
3C
00
77
22
24
28
10
10
20
20
F8
ENDCHAR
STARTCHAR uni0233
ENCODING 563
SWIDTH 600 0
DWIDTH 9 0
BBX 9 12 0 -3
BITMAP
1E00
0000
7380
2100
2200
1400
1400
0800
1000
1000
2000
F000
ENDCHAR
STARTCHAR uni0250
ENCODING 592
SWIDTH 600 0
DWIDTH 9 0
BBX 6 7 1 0
BITMAP
B8
44
44
78
80
88
70
ENDCHAR
STARTCHAR uni0259
ENCODING 601
SWIDTH 600 0
DWIDTH 9 0
BBX 7 7 1 0
BITMAP
1C
62
02
FE
84
8C
70
ENDCHAR
STARTCHAR uni025F
ENCODING 607
SWIDTH 600 0
DWIDTH 9 0
BBX 9 10 1 -3
BITMAP
1F80
0200
0200
0400
0400
0400
3E00
0800
0800
F000
ENDCHAR
STARTCHAR uni0265
ENCODING 613
SWIDTH 600 0
DWIDTH 9 0
BBX 7 10 0 -3
BITMAP
EE
44
44
88
88
98
70
10
10
18
ENDCHAR
STARTCHAR uni0275
ENCODING 629
SWIDTH 600 0
DWIDTH 9 0
BBX 7 7 1 0
BITMAP
1C
62
42
FE
84
8C
70
ENDCHAR
STARTCHAR uni0279
ENCODING 633
SWIDTH 600 0
DWIDTH 9 0
BBX 8 7 0 0
BITMAP
3F
04
04
08
08
18
EC
ENDCHAR
STARTCHAR uni0287
ENCODING 647
SWIDTH 600 0
DWIDTH 9 0
BBX 7 9 1 0
BITMAP
38
44
04
04
08
08
FE
10
10
ENDCHAR
STARTCHAR uni0289
ENCODING 649
SWIDTH 600 0
DWIDTH 9 0
BBX 6 7 1 0
BITMAP
CC
44
44
FC
88
98
6C
ENDCHAR
STARTCHAR uni028C
ENCODING 652
SWIDTH 600 0
DWIDTH 9 0
BBX 8 7 1 0
BITMAP
0C
14
14
22
22
42
E7
ENDCHAR
STARTCHAR uni028D
ENCODING 653
SWIDTH 600 0
DWIDTH 9 0
BBX 10 7 0 0
BITMAP
0880
1980
1980
2680
2480
4480
E1C0
ENDCHAR
STARTCHAR uni028E
ENCODING 654
SWIDTH 600 0
DWIDTH 9 0
BBX 9 10 0 0
BITMAP
0780
0200
0400
0400
0800
1400
1400
2200
4200
E700
ENDCHAR
STARTCHAR uni029E
ENCODING 670
SWIDTH 600 0
DWIDTH 9 0
BBX 8 10 0 -3
BITMAP
73
22
12
0C
14
24
E8
08
08
0C
ENDCHAR
STARTCHAR uni02BB
ENCODING 699
SWIDTH 600 0
DWIDTH 9 0
BBX 3 4 4 6
BITMAP
C0
C0
60
20
ENDCHAR
STARTCHAR afii57929
ENCODING 700
SWIDTH 600 0
DWIDTH 9 0
BBX 3 4 3 6
BITMAP
60
60
C0
80
ENDCHAR
STARTCHAR afii64937
ENCODING 701
SWIDTH 600 0
DWIDTH 9 0
BBX 3 4 3 6
BITMAP
C0
C0
60
20
ENDCHAR
STARTCHAR circumflex
ENCODING 710
SWIDTH 600 0
DWIDTH 9 0
BBX 3 2 4 7
BITMAP
60
A0
ENDCHAR
STARTCHAR caron
ENCODING 711
SWIDTH 600 0
DWIDTH 9 0
BBX 3 2 4 7
BITMAP
A0
C0
ENDCHAR
STARTCHAR uni02C8
ENCODING 712
SWIDTH 600 0
DWIDTH 9 0
BBX 2 4 4 5
BITMAP
C0
C0
80
80
ENDCHAR
STARTCHAR macron
ENCODING 713
SWIDTH 600 0
DWIDTH 9 0
BBX 4 1 3 8
BITMAP
F0
ENDCHAR
STARTCHAR uni02CA
ENCODING 714
SWIDTH 600 0
DWIDTH 9 0
BBX 4 2 3 7
BITMAP
30
C0
ENDCHAR
STARTCHAR uni02CB
ENCODING 715
SWIDTH 600 0
DWIDTH 9 0
BBX 4 2 3 7
BITMAP
C0
30
ENDCHAR
STARTCHAR uni02CD
ENCODING 717
SWIDTH 600 0
DWIDTH 9 0
BBX 4 1 3 -2
BITMAP
F0
ENDCHAR
STARTCHAR uni02CE
ENCODING 718
SWIDTH 600 0
DWIDTH 9 0
BBX 4 2 3 -3
BITMAP
C0
30
ENDCHAR
STARTCHAR uni02CF
ENCODING 719
SWIDTH 600 0
DWIDTH 9 0
BBX 4 2 3 -3
BITMAP
30
C0
ENDCHAR
STARTCHAR breve
ENCODING 728
SWIDTH 600 0
DWIDTH 9 0
BBX 4 2 4 7
BITMAP
90
E0
ENDCHAR
STARTCHAR dotaccent
ENCODING 729
SWIDTH 600 0
DWIDTH 9 0
BBX 1 1 5 8
BITMAP
80
ENDCHAR
STARTCHAR ring
ENCODING 730
SWIDTH 600 0
DWIDTH 9 0
BBX 3 3 4 6
BITMAP
60
A0
C0
ENDCHAR
STARTCHAR ogonek
ENCODING 731
SWIDTH 600 0
DWIDTH 9 0
BBX 3 3 3 -2
BITMAP
40
80
E0
ENDCHAR
STARTCHAR tilde
ENCODING 732
SWIDTH 600 0
DWIDTH 9 0
BBX 4 2 3 7
BITMAP
50
A0
ENDCHAR
STARTCHAR hungarumlaut
ENCODING 733
SWIDTH 600 0
DWIDTH 9 0
BBX 5 2 3 7
BITMAP
48
90
ENDCHAR
STARTCHAR uni02EE
ENCODING 750
SWIDTH 600 0
DWIDTH 9 0
BBX 6 4 2 5
BITMAP
6C
6C
D8
90
ENDCHAR
STARTCHAR uni037E
ENCODING 894
SWIDTH 600 0
DWIDTH 9 0
BBX 5 9 1 -2
BITMAP
18
18
00
00
00
60
60
C0
80
ENDCHAR
STARTCHAR tonos
ENCODING 900
SWIDTH 600 0
DWIDTH 9 0
BBX 4 2 3 7
BITMAP
30
C0
ENDCHAR
STARTCHAR dieresistonos
ENCODING 901
SWIDTH 600 0
DWIDTH 9 0
BBX 5 4 3 8
BITMAP
18
60
00
90
ENDCHAR
STARTCHAR anoteleia
ENCODING 903
SWIDTH 600 0
DWIDTH 9 0
BBX 2 2 4 3
BITMAP
C0
C0
ENDCHAR
STARTCHAR mu
ENCODING 956
SWIDTH 600 0
DWIDTH 9 0
BBX 7 10 0 -3
BITMAP
66
22
22
44
44
4C
F6
80
80
80
ENDCHAR
STARTCHAR uni1E00
ENCODING 7680
SWIDTH 600 0
DWIDTH 9 0
BBX 8 13 0 -4
BITMAP
1E
06
0A
0A
12
3E
22
42
EF
00
18
28
30
ENDCHAR
STARTCHAR uni1E01
ENCODING 7681
SWIDTH 600 0
DWIDTH 9 0
BBX 6 11 1 -4
BITMAP
38
44
04
78
88
88
74
00
30
50
60
ENDCHAR
STARTCHAR uni1E02
ENCODING 7682
SWIDTH 600 0
DWIDTH 9 0
BBX 8 11 0 0
BITMAP
08
00
3E
11
11
22
3C
22
42
44
F8
ENDCHAR
STARTCHAR uni1E03
ENCODING 7683
SWIDTH 600 0
DWIDTH 9 0
BBX 8 12 0 0
BITMAP
10
00
30
10
10
16
29
31
21
61
62
DC
ENDCHAR
STARTCHAR uni1E04
ENCODING 7684
SWIDTH 600 0
DWIDTH 9 0
BBX 8 11 0 -2
BITMAP
3E
11
11
22
3C
22
42
44
F8
00
10
ENDCHAR
STARTCHAR uni1E05
ENCODING 7685
SWIDTH 600 0
DWIDTH 9 0
BBX 8 12 0 -2
BITMAP
30
10
10
16
29
31
21
61
62
DC
00
10
ENDCHAR
STARTCHAR uni1E06
ENCODING 7686
SWIDTH 600 0
DWIDTH 9 0
BBX 8 11 0 -2
BITMAP
3E
11
11
22
3C
22
42
44
F8
00
78
ENDCHAR
STARTCHAR uni1E07
ENCODING 7687
SWIDTH 600 0
DWIDTH 9 0
BBX 8 12 0 -2
BITMAP
30
10
10
16
29
31
21
61
62
DC
00
3C
ENDCHAR
STARTCHAR uni1E08
ENCODING 7688
SWIDTH 600 0
DWIDTH 9 0
BBX 8 15 0 -3
BITMAP
06
18
00
0F
33
21
40
40
40
42
66
38
30
10
E0
ENDCHAR
STARTCHAR uni1E09
ENCODING 7689
SWIDTH 600 0
DWIDTH 9 0
BBX 8 13 0 -3
BITMAP
03
0C
00
0F
31
21
40
40
46
38
20
10
E0
ENDCHAR
STARTCHAR uni1E0A
ENCODING 7690
SWIDTH 600 0
DWIDTH 9 0
BBX 8 11 0 0
BITMAP
08
00
3E
13
11
21
21
21
42
46
F8
ENDCHAR
STARTCHAR uni1E0B
ENCODING 7691
SWIDTH 600 0
DWIDTH 9 0
BBX 7 12 1 0
BITMAP
04
00
06
02
02
34
4C
84
84
88
98
6C
ENDCHAR
STARTCHAR uni1E0C
ENCODING 7692
SWIDTH 600 0
DWIDTH 9 0
BBX 8 11 0 -2
BITMAP
3E
13
11
21
21
21
42
46
F8
00
10
ENDCHAR
STARTCHAR uni1E0D
ENCODING 7693
SWIDTH 600 0
DWIDTH 9 0
BBX 7 12 1 -2
BITMAP
06
02
02
34
4C
84
84
88
98
6C
00
10
ENDCHAR
STARTCHAR uni1E0E
ENCODING 7694
SWIDTH 600 0
DWIDTH 9 0
BBX 8 11 0 -2
BITMAP
3E
13
11
21
21
21
42
46
F8
00
3C
ENDCHAR
STARTCHAR uni1E0F
ENCODING 7695
SWIDTH 600 0
DWIDTH 9 0
BBX 7 12 1 -2
BITMAP
06
02
02
34
4C
84
84
88
98
6C
00
78
ENDCHAR
STARTCHAR uni1E10
ENCODING 7696
SWIDTH 600 0
DWIDTH 9 0
BBX 8 12 0 -3
BITMAP
3E
13
11
21
21
21
42
46
F8
18
08
70
ENDCHAR
STARTCHAR uni1E11
ENCODING 7697
SWIDTH 600 0
DWIDTH 9 0
BBX 7 13 1 -3
BITMAP
06
02
02
34
4C
84
84
88
98
7C
18
08
70
ENDCHAR
STARTCHAR uni1E12
ENCODING 7698
SWIDTH 600 0
DWIDTH 9 0
BBX 8 12 0 -3
BITMAP
3E
13
11
21
21
21
42
46
F8
00
18
28
ENDCHAR
STARTCHAR uni1E13
ENCODING 7699
SWIDTH 600 0
DWIDTH 9 0
BBX 7 13 1 -3
BITMAP
06
02
02
34
4C
84
84
88
98
6C
00
30
50
ENDCHAR
STARTCHAR uni1E14
ENCODING 7700
SWIDTH 600 0
DWIDTH 9 0
BBX 9 14 0 0
BITMAP
3000
0C00
0000
1E00
0000
3F80
1100
1100
2400
3C00
2400
4100
4200
FE00
ENDCHAR
STARTCHAR uni1E15
ENCODING 7701
SWIDTH 600 0
DWIDTH 9 0
BBX 7 12 1 0
BITMAP
60
18
00
3C
00
1C
62
42
FE
80
8C
70
ENDCHAR
STARTCHAR uni1E16
ENCODING 7702
SWIDTH 600 0
DWIDTH 9 0
BBX 9 14 0 0
BITMAP
0300
0C00
0000
1E00
0000
3F80
1100
1100
2400
3C00
2400
4100
4200
FE00
ENDCHAR
STARTCHAR uni1E17
ENCODING 7703
SWIDTH 600 0
DWIDTH 9 0
BBX 7 12 1 0
BITMAP
06
18
00
3C
00
1C
62
42
FE
80
8C
70
ENDCHAR
STARTCHAR uni1E18
ENCODING 7704
SWIDTH 600 0
DWIDTH 9 0
BBX 9 12 0 -3
BITMAP
3F80
1100
1100
2400
3C00
2400
4100
4200
FE00
0000
1800
2800
ENDCHAR
STARTCHAR uni1E19
ENCODING 7705
SWIDTH 600 0
DWIDTH 9 0
BBX 7 10 1 -3
BITMAP
1C
62
42
FE
80
8C
70
00
30
50
ENDCHAR
STARTCHAR uni1E1A
ENCODING 7706
SWIDTH 600 0
DWIDTH 9 0
BBX 9 12 0 -3
BITMAP
3F80
1100
1100
2400
3C00
2400
4100
4200
FE00
0000
1400
2800
ENDCHAR
STARTCHAR uni1E1B
ENCODING 7707
SWIDTH 600 0
DWIDTH 9 0
BBX 7 10 1 -3
BITMAP
1C
62
42
FE
80
8C
70
00
28
50
ENDCHAR
STARTCHAR uni1E1C
ENCODING 7708
SWIDTH 600 0
DWIDTH 9 0
BBX 9 15 0 -3
BITMAP
1200
1C00
0000
3F80
1100
1100
2400
3C00
2400
4100
4200
FE00
1800
0800
7000
ENDCHAR
STARTCHAR uni1E1D
ENCODING 7709
SWIDTH 600 0
DWIDTH 9 0
BBX 7 13 1 -3
BITMAP
24
38
00
1C
62
42
FE
80
8C
70
18
08
70
ENDCHAR
STARTCHAR uni1E1E
ENCODING 7710
SWIDTH 600 0
DWIDTH 9 0
BBX 9 11 0 0
BITMAP
0400
0000
3F80
1100
1100
2400
3C00
2400
4000
4000
F000
ENDCHAR
STARTCHAR uni1E1F
ENCODING 7711
SWIDTH 600 0
DWIDTH 9 0
BBX 9 12 1 0
BITMAP
0400
0000
0780
0800
0800
3E00
1000
1000
1000
2000
2000
FC00
ENDCHAR
STARTCHAR uni1E20
ENCODING 7712
SWIDTH 600 0
DWIDTH 9 0
BBX 7 11 1 0
BITMAP
3C
00
1E
62
42
80
80
9E
84
CC
70
ENDCHAR
STARTCHAR uni1E21
ENCODING 7713
SWIDTH 600 0
DWIDTH 9 0
BBX 8 12 0 -3
BITMAP
1E
00
19
26
42
42
44
4C
34
04
88
70
ENDCHAR
STARTCHAR uni1E22
ENCODING 7714
SWIDTH 600 0
DWIDTH 9 0
BBX 9 11 0 0
BITMAP
0400
0000
3B80
1100
1100
2200
3E00
2200
4400
4400
EE00
ENDCHAR
STARTCHAR uni1E23
ENCODING 7715
SWIDTH 600 0
DWIDTH 9 0
BBX 7 12 0 0
BITMAP
10
00
30
10
10
1C
32
22
22
44
44
EE
ENDCHAR
STARTCHAR uni1E24
ENCODING 7716
SWIDTH 600 0
DWIDTH 9 0
BBX 9 11 0 -2
BITMAP
3B80
1100
1100
2200
3E00
2200
4400
4400
EE00
0000
1000
ENDCHAR
STARTCHAR uni1E25
ENCODING 7717
SWIDTH 600 0
DWIDTH 9 0
BBX 7 12 0 -2
BITMAP
30
10
10
1C
32
22
22
44
44
EE
00
10
ENDCHAR
STARTCHAR uni1E26
ENCODING 7718
SWIDTH 600 0
DWIDTH 9 0
BBX 9 11 0 0
BITMAP
1200
0000
3B80
1100
1100
2200
3E00
2200
4400
4400
EE00
ENDCHAR
STARTCHAR uni1E27
ENCODING 7719
SWIDTH 600 0
DWIDTH 9 0
BBX 7 12 0 0
BITMAP
48
00
30
10
10
1C
32
22
22
44
44
EE
ENDCHAR
STARTCHAR uni1E28
ENCODING 7720
SWIDTH 600 0
DWIDTH 9 0
BBX 9 12 0 -3
BITMAP
3B80
1100
1100
2200
3E00
2200
4400
4400
FE00
1800
0800
7000
ENDCHAR
STARTCHAR uni1E29
ENCODING 7721
SWIDTH 600 0
DWIDTH 9 0
BBX 7 13 0 -3
BITMAP
30
10
10
1C
32
22
22
44
44
FE
18
08
70
ENDCHAR
STARTCHAR uni1E2A
ENCODING 7722
SWIDTH 600 0
DWIDTH 9 0
BBX 9 12 0 -3
BITMAP
3B80
1100
1100
2200
3E00
2200
4400
4400
EE00
0000
2400
3800
ENDCHAR
STARTCHAR uni1E2B
ENCODING 7723
SWIDTH 600 0
DWIDTH 9 0
BBX 7 13 0 -3
BITMAP
30
10
10
1C
32
22
22
44
44
EE
00
24
38
ENDCHAR
STARTCHAR uni1E2C
ENCODING 7724
SWIDTH 600 0
DWIDTH 9 0
BBX 7 12 1 -3
BITMAP
3E
08
08
10
10
10
20
20
F8
00
28
50
ENDCHAR
STARTCHAR uni1E2D
ENCODING 7725
SWIDTH 600 0
DWIDTH 9 0
BBX 5 13 2 -3
BITMAP
08
08
00
70
10
10
20
20
20
F8
00
50
A0
ENDCHAR
STARTCHAR uni1E2E
ENCODING 7726
SWIDTH 600 0
DWIDTH 9 0
BBX 7 14 1 0
BITMAP
06
18
00
12
00
3E
08
08
10
10
10
20
20
F8
ENDCHAR
STARTCHAR uni1E2F
ENCODING 7727
SWIDTH 600 0
DWIDTH 9 0
BBX 5 12 2 0
BITMAP
18
60
00
48
00
70
10
10
20
20
20
F8
ENDCHAR
STARTCHAR uni1E30
ENCODING 7728
SWIDTH 600 0
DWIDTH 9 0
BBX 9 12 0 0
BITMAP
0300
0C00
0000
3B80
1100
1200
2400
3800
2400
4400
4400
E600
ENDCHAR
STARTCHAR uni1E31
ENCODING 7729
SWIDTH 600 0
DWIDTH 9 0
BBX 8 13 0 0
BITMAP
0C
30
00
30
10
10
17
24
28
30
48
44
CE
ENDCHAR
STARTCHAR uni1E32
ENCODING 7730
SWIDTH 600 0
DWIDTH 9 0
BBX 9 11 0 -2
BITMAP
3B80
1100
1200
2400
3800
2400
4400
4400
E600
0000
1000
ENDCHAR
STARTCHAR uni1E33
ENCODING 7731
SWIDTH 600 0
DWIDTH 9 0
BBX 8 12 0 -2
BITMAP
30
10
10
17
24
28
30
48
44
CE
00
10
ENDCHAR
STARTCHAR uni1E34
ENCODING 7732
SWIDTH 600 0
DWIDTH 9 0
BBX 9 11 0 -2
BITMAP
3B80
1100
1200
2400
3800
2400
4400
4400
E600
0000
3C00
ENDCHAR
STARTCHAR uni1E35
ENCODING 7733
SWIDTH 600 0
DWIDTH 9 0
BBX 8 12 0 -2
BITMAP
30
10
10
17
24
28
30
48
44
CE
00
3C
ENDCHAR
STARTCHAR uni1E36
ENCODING 7734
SWIDTH 600 0
DWIDTH 9 0
BBX 8 11 0 -2
BITMAP
3E
08
08
10
10
11
21
22
FE
00
10
ENDCHAR
STARTCHAR uni1E37
ENCODING 7735
SWIDTH 600 0
DWIDTH 9 0
BBX 6 12 1 -2
BITMAP
38
08
08
10
10
10
10
20
20
FC
00
20
ENDCHAR
STARTCHAR uni1E38
ENCODING 7736
SWIDTH 600 0
DWIDTH 9 0
BBX 8 13 0 -2
BITMAP
3C
00
3E
08
08
10
10
11
21
22
FE
00
10
ENDCHAR
STARTCHAR uni1E39
ENCODING 7737
SWIDTH 600 0
DWIDTH 9 0
BBX 6 14 1 -2
BITMAP
3C
00
38
08
08
10
10
10
10
20
20
FC
00
20
ENDCHAR
STARTCHAR uni1E3A
ENCODING 7738
SWIDTH 600 0
DWIDTH 9 0
BBX 8 11 0 -2
BITMAP
3E
08
08
10
10
11
21
22
FE
00
3C
ENDCHAR
STARTCHAR uni1E3B
ENCODING 7739
SWIDTH 600 0
DWIDTH 9 0
BBX 6 12 1 -2
BITMAP
38
08
08
10
10
10
10
20
20
FC
00
78
ENDCHAR
STARTCHAR uni1E3C
ENCODING 7740
SWIDTH 600 0
DWIDTH 9 0
BBX 8 12 0 -3
BITMAP
3E
08
08
10
10
11
21
22
FE
00
18
28
ENDCHAR
STARTCHAR uni1E3D
ENCODING 7741
SWIDTH 600 0
DWIDTH 9 0
BBX 6 13 1 -3
BITMAP
38
08
08
10
10
10
10
20
20
FC
00
30
50
ENDCHAR
STARTCHAR uni1E3E
ENCODING 7742
SWIDTH 600 0
DWIDTH 9 0
BBX 10 12 0 0
BITMAP
0300
0C00
0000
30C0
1180
1280
2A80
2D00
2900
4200
4200
E700
ENDCHAR
STARTCHAR uni1E3F
ENCODING 7743
SWIDTH 600 0
DWIDTH 9 0
BBX 9 10 0 0
BITMAP
0300
0C00
0000
6D80
3680
2480
2480
4900
4900
ED80
ENDCHAR
STARTCHAR uni1E40
ENCODING 7744
SWIDTH 600 0
DWIDTH 9 0
BBX 10 11 0 0
BITMAP
0400
0000
30C0
1180
1280
2A80
2D00
2900
4200
4200
E700
ENDCHAR
STARTCHAR uni1E41
ENCODING 7745
SWIDTH 600 0
DWIDTH 9 0
BBX 9 9 0 0
BITMAP
0800
0000
6D80
3680
2480
2480
4900
4900
ED80
ENDCHAR
STARTCHAR uni1E42
ENCODING 7746
SWIDTH 600 0
DWIDTH 9 0
BBX 10 11 0 -2
BITMAP
30C0
1180
1280
2A80
2D00
2900
4200
4200
E700
0000
0800
ENDCHAR
STARTCHAR uni1E43
ENCODING 7747
SWIDTH 600 0
DWIDTH 9 0
BBX 9 9 0 -2
BITMAP
6D80
3680
2480
2480
4900
4900
ED80
0000
0800
ENDCHAR
STARTCHAR uni1E44
ENCODING 7748
SWIDTH 600 0
DWIDTH 9 0
BBX 10 11 0 0
BITMAP
0400
0000
71C0
1080
1080
2900
2900
2500
4500
4200
F200
ENDCHAR
STARTCHAR uni1E45
ENCODING 7749
SWIDTH 600 0
DWIDTH 9 0
BBX 8 9 0 0
BITMAP
08
00
6E
31
21
21
42
42
E7
ENDCHAR
STARTCHAR uni1E46
ENCODING 7750
SWIDTH 600 0
DWIDTH 9 0
BBX 10 11 0 -2
BITMAP
71C0
1080
1080
2900
2900
2500
4500
4200
F200
0000
0800
ENDCHAR
STARTCHAR uni1E47
ENCODING 7751
SWIDTH 600 0
DWIDTH 9 0
BBX 8 9 0 -2
BITMAP
6E
31
21
21
42
42
E7
00
08
ENDCHAR
STARTCHAR uni1E48
ENCODING 7752
SWIDTH 600 0
DWIDTH 9 0
BBX 10 11 0 -2
BITMAP
71C0
1080
1080
2900
2900
2500
4500
4200
F200
0000
3C00
ENDCHAR
STARTCHAR uni1E49
ENCODING 7753
SWIDTH 600 0
DWIDTH 9 0
BBX 8 9 0 -2
BITMAP
6E
31
21
21
42
42
E7
00
3C
ENDCHAR
STARTCHAR uni1E4A
ENCODING 7754
SWIDTH 600 0
DWIDTH 9 0
BBX 10 12 0 -3
BITMAP
71C0
1080
1080
2900
2900
2500
4500
4200
F200
0000
1800
2800
ENDCHAR
STARTCHAR uni1E4B
ENCODING 7755
SWIDTH 600 0
DWIDTH 9 0
BBX 8 10 0 -3
BITMAP
6E
31
21
21
42
42
E7
00
18
28
ENDCHAR
STARTCHAR uni1E4C
ENCODING 7756
SWIDTH 600 0
DWIDTH 9 0
BBX 7 15 1 0
BITMAP
06
18
00
0A
14
00
1C
66
42
82
82
82
84
CC
70
ENDCHAR
STARTCHAR uni1E4D
ENCODING 7757
SWIDTH 600 0
DWIDTH 9 0
BBX 7 13 1 0
BITMAP
06
18
00
0A
14
00
1C
62
42
82
84
8C
70
ENDCHAR
STARTCHAR uni1E4E
ENCODING 7758
SWIDTH 600 0
DWIDTH 9 0
BBX 7 14 1 0
BITMAP
24
00
0A
14
00
1C
66
42
82
82
82
84
CC
70
ENDCHAR
STARTCHAR uni1E4F
ENCODING 7759
SWIDTH 600 0
DWIDTH 9 0
BBX 7 12 1 0
BITMAP
12
00
0A
14
00
1C
62
42
82
84
8C
70
ENDCHAR
STARTCHAR uni1E50
ENCODING 7760
SWIDTH 600 0
DWIDTH 9 0
BBX 7 14 1 0
BITMAP
60
18
00
3C
00
1C
66
42
82
82
82
84
CC
70
ENDCHAR
STARTCHAR uni1E51
ENCODING 7761
SWIDTH 600 0
DWIDTH 9 0
BBX 7 12 1 0
BITMAP
60
18
00
3C
00
1C
62
42
82
84
8C
70
ENDCHAR
STARTCHAR uni1E52
ENCODING 7762
SWIDTH 600 0
DWIDTH 9 0
BBX 7 14 1 0
BITMAP
06
18
00
3C
00
1C
66
42
82
82
82
84
CC
70
ENDCHAR
STARTCHAR uni1E53
ENCODING 7763
SWIDTH 600 0
DWIDTH 9 0
BBX 7 12 1 0
BITMAP
06
18
00
3C
00
1C
62
42
82
84
8C
70
ENDCHAR
STARTCHAR uni1E54
ENCODING 7764
SWIDTH 600 0
DWIDTH 9 0
BBX 8 12 0 0
BITMAP
06
18
00
3E
11
11
21
22
3C
40
40
F8
ENDCHAR
STARTCHAR uni1E55
ENCODING 7765
SWIDTH 600 0
DWIDTH 9 0
BBX 9 13 -1 -3
BITMAP
0300
0C00
0000
3700
1880
1080
1080
2100
3300
2C00
4000
4000
F000
ENDCHAR
STARTCHAR uni1E56
ENCODING 7766
SWIDTH 600 0
DWIDTH 9 0
BBX 8 11 0 0
BITMAP
08
00
3E
11
11
21
22
3C
40
40
F8
ENDCHAR
STARTCHAR uni1E57
ENCODING 7767
SWIDTH 600 0
DWIDTH 9 0
BBX 9 12 -1 -3
BITMAP
0400
0000
3700
1880
1080
1080
2100
3300
2C00
4000
4000
F000
ENDCHAR
STARTCHAR uni1E58
ENCODING 7768
SWIDTH 600 0
DWIDTH 9 0
BBX 8 11 0 0
BITMAP
08
00
3E
11
11
21
22
3C
44
42
F3
ENDCHAR
STARTCHAR uni1E59
ENCODING 7769
SWIDTH 600 0
DWIDTH 9 0
BBX 8 9 0 0
BITMAP
08
00
37
18
10
10
20
20
FC
ENDCHAR
STARTCHAR uni1E5A
ENCODING 7770
SWIDTH 600 0
DWIDTH 9 0
BBX 8 11 0 -2
BITMAP
3E
11
11
21
22
3C
44
42
F3
00
10
ENDCHAR
STARTCHAR uni1E5B
ENCODING 7771
SWIDTH 600 0
DWIDTH 9 0
BBX 8 9 0 -2
BITMAP
37
18
10
10
20
20
FC
00
10
ENDCHAR
STARTCHAR uni1E5C
ENCODING 7772
SWIDTH 600 0
DWIDTH 9 0
BBX 8 13 0 -2
BITMAP
1E
00
3E
11
11
21
22
3C
44
42
F3
00
10
ENDCHAR
STARTCHAR uni1E5D
ENCODING 7773
SWIDTH 600 0
DWIDTH 9 0
BBX 8 11 0 -2
BITMAP
3C
00
37
18
10
10
20
20
FC
00
10
ENDCHAR
STARTCHAR uni1E5E
ENCODING 7774
SWIDTH 600 0
DWIDTH 9 0
BBX 8 11 0 -2
BITMAP
3E
11
11
21
22
3C
44
42
F3
00
3C
ENDCHAR
STARTCHAR uni1E5F
ENCODING 7775
SWIDTH 600 0
DWIDTH 9 0
BBX 8 9 0 -2
BITMAP
37
18
10
10
20
20
FC
00
78
ENDCHAR
STARTCHAR uni1E60
ENCODING 7776
SWIDTH 600 0
DWIDTH 9 0
BBX 8 11 0 0
BITMAP
08
00
1D
33
22
20
1C
02
42
C6
BC
ENDCHAR
STARTCHAR uni1E61
ENCODING 7777
SWIDTH 600 0
DWIDTH 9 0
BBX 7 9 0 0
BITMAP
08
00
1E
22
20
18
04
84
F8
ENDCHAR
STARTCHAR uni1E62
ENCODING 7778
SWIDTH 600 0
DWIDTH 9 0
BBX 8 11 0 -2
BITMAP
1D
33
22
20
1C
02
42
C6
BC
00
10
ENDCHAR
STARTCHAR uni1E63
ENCODING 7779
SWIDTH 600 0
DWIDTH 9 0
BBX 7 9 0 -2
BITMAP
1E
22
20
18
04
84
F8
00
20
ENDCHAR
STARTCHAR uni1E64
ENCODING 7780
SWIDTH 600 0
DWIDTH 9 0
BBX 8 14 0 0
BITMAP
08
00
06
18
00
1D
33
22
20
1C
02
42
C6
BC
ENDCHAR
STARTCHAR uni1E65
ENCODING 7781
SWIDTH 600 0
DWIDTH 9 0
BBX 7 12 0 0
BITMAP
08
00
06
18
00
1E
22
20
18
04
84
F8
ENDCHAR
STARTCHAR uni1E66
ENCODING 7782
SWIDTH 600 0
DWIDTH 9 0
BBX 8 14 0 0
BITMAP
08
00
0A
0C
00
1D
33
22
20
1C
02
C2
C6
BC
ENDCHAR
STARTCHAR uni1E67
ENCODING 7783
SWIDTH 600 0
DWIDTH 9 0
BBX 7 12 0 0
BITMAP
08
00
0A
0C
00
1E
22
20
18
04
84
F8
ENDCHAR
STARTCHAR uni1E68
ENCODING 7784
SWIDTH 600 0
DWIDTH 9 0
BBX 8 13 0 -2
BITMAP
08
00
1D
33
22
20
1C
02
42
C6
BC
00
10
ENDCHAR
STARTCHAR uni1E69
ENCODING 7785
SWIDTH 600 0
DWIDTH 9 0
BBX 7 11 0 -2
BITMAP
08
00
1E
22
20
18
04
84
F8
00
20
ENDCHAR
STARTCHAR uni1E6A
ENCODING 7786
SWIDTH 600 0
DWIDTH 9 0
BBX 9 11 1 0
BITMAP
0800
0000
7F80
4880
8900
9100
1000
1000
2000
2000
F800
ENDCHAR
STARTCHAR uni1E6B
ENCODING 7787
SWIDTH 600 0
DWIDTH 9 0
BBX 7 11 1 0
BITMAP
10
00
10
10
FE
20
20
40
40
44
38
ENDCHAR
STARTCHAR uni1E6C
ENCODING 7788
SWIDTH 600 0
DWIDTH 9 0
BBX 9 11 1 -2
BITMAP
7F80
4880
8900
9100
1000
1000
2000
2000
F800
0000
1000
ENDCHAR
STARTCHAR uni1E6D
ENCODING 7789
SWIDTH 600 0
DWIDTH 9 0
BBX 7 11 1 -2
BITMAP
10
10
FE
20
20
40
40
44
38
00
10
ENDCHAR
STARTCHAR uni1E6E
ENCODING 7790
SWIDTH 600 0
DWIDTH 9 0
BBX 9 11 1 -2
BITMAP
7F80
4880
8900
9100
1000
1000
2000
2000
F800
0000
7800
ENDCHAR
STARTCHAR uni1E6F
ENCODING 7791
SWIDTH 600 0
DWIDTH 9 0
BBX 7 11 1 -2
BITMAP
10
10
FE
20
20
40
40
44
38
00
78
ENDCHAR
STARTCHAR uni1E70
ENCODING 7792
SWIDTH 600 0
DWIDTH 9 0
BBX 9 12 1 -3
BITMAP
7F80
4880
8900
9100
1000
1000
2000
2000
F800
0000
3000
5000
ENDCHAR
STARTCHAR uni1E71
ENCODING 7793
SWIDTH 600 0
DWIDTH 9 0
BBX 7 12 1 -3
BITMAP
10
10
FE
20
20
40
40
44
38
00
30
50
ENDCHAR
STARTCHAR uni1E72
ENCODING 7794
SWIDTH 600 0
DWIDTH 9 0
BBX 8 11 1 -2
BITMAP
77
22
22
44
44
44
88
88
70
00
48
ENDCHAR
STARTCHAR uni1E73
ENCODING 7795
SWIDTH 600 0
DWIDTH 9 0
BBX 6 9 1 -2
BITMAP
CC
44
44
88
88
98
6C
00
48
ENDCHAR
STARTCHAR uni1E74
ENCODING 7796
SWIDTH 600 0
DWIDTH 9 0
BBX 8 12 1 -3
BITMAP
77
22
22
44
44
44
88
88
70
00
28
50
ENDCHAR
STARTCHAR uni1E75
ENCODING 7797
SWIDTH 600 0
DWIDTH 9 0
BBX 6 10 1 -3
BITMAP
CC
44
44
88
88
98
6C
00
28
50
ENDCHAR
STARTCHAR uni1E76
ENCODING 7798
SWIDTH 600 0
DWIDTH 9 0
BBX 8 12 1 -3
BITMAP
77
22
22
44
44
44
88
88
70
00
30
50
ENDCHAR
STARTCHAR uni1E77
ENCODING 7799
SWIDTH 600 0
DWIDTH 9 0
BBX 6 10 1 -3
BITMAP
CC
44
44
88
88
98
6C
00
30
50
ENDCHAR
STARTCHAR uni1E78
ENCODING 7800
SWIDTH 600 0
DWIDTH 9 0
BBX 8 15 1 0
BITMAP
06
18
00
0A
14
00
77
22
22
44
44
44
88
88
70
ENDCHAR
STARTCHAR uni1E79
ENCODING 7801
SWIDTH 600 0
DWIDTH 9 0
BBX 6 13 1 0
BITMAP
0C
30
00
28
50
00
CC
44
44
88
88
98
6C
ENDCHAR
STARTCHAR uni1E7A
ENCODING 7802
SWIDTH 600 0
DWIDTH 9 0
BBX 8 13 1 0
BITMAP
24
00
3C
00
77
22
22
44
44
44
88
88
70
ENDCHAR
STARTCHAR uni1E7B
ENCODING 7803
SWIDTH 600 0
DWIDTH 9 0
BBX 6 11 1 0
BITMAP
48
00
78
00
CC
44
44
88
88
98
6C
ENDCHAR
STARTCHAR uni1E7C
ENCODING 7804
SWIDTH 600 0
DWIDTH 9 0
BBX 9 12 1 0
BITMAP
0A00
1400
0000
E780
4100
4100
4200
2400
2400
2800
3000
3000
ENDCHAR
STARTCHAR uni1E7D
ENCODING 7805
SWIDTH 600 0
DWIDTH 9 0
BBX 8 10 1 0
BITMAP
14
28
00
E7
42
44
44
28
28
30
ENDCHAR
STARTCHAR uni1E7E
ENCODING 7806
SWIDTH 600 0
DWIDTH 9 0
BBX 9 11 1 -2
BITMAP
E780
4100
4100
4200
2400
2400
2800
3000
3000
0000
1000
ENDCHAR
STARTCHAR uni1E7F
ENCODING 7807
SWIDTH 600 0
DWIDTH 9 0
BBX 8 9 1 -2
BITMAP
E7
42
44
44
28
28
30
00
10
ENDCHAR
STARTCHAR Wgrave
ENCODING 7808
SWIDTH 600 0
DWIDTH 9 0
BBX 10 12 0 0
BITMAP
3000
0C00
0000
E1C0
4080
4880
4900
5500
5500
6600
6600
4400
ENDCHAR
STARTCHAR wgrave
ENCODING 7809
SWIDTH 600 0
DWIDTH 9 0
BBX 10 10 0 0
BITMAP
3000
0C00
0000
E1C0
4880
4900
5900
6600
6600
4400
ENDCHAR
STARTCHAR Wacute
ENCODING 7810
SWIDTH 600 0
DWIDTH 9 0
BBX 10 12 0 0
BITMAP
0300
0C00
0000
E1C0
4080
4880
4900
5500
5500
6600
6600
4400
ENDCHAR
STARTCHAR wacute
ENCODING 7811
SWIDTH 600 0
DWIDTH 9 0
BBX 10 10 0 0
BITMAP
0300
0C00
0000
E1C0
4880
4900
5900
6600
6600
4400
ENDCHAR
STARTCHAR Wdieresis
ENCODING 7812
SWIDTH 600 0
DWIDTH 9 0
BBX 10 11 0 0
BITMAP
1200
0000
E1C0
4080
4880
4900
5500
5500
6600
6600
4400
ENDCHAR
STARTCHAR wdieresis
ENCODING 7813
SWIDTH 600 0
DWIDTH 9 0
BBX 10 9 0 0
BITMAP
1200
0000
E1C0
4880
4900
5900
6600
6600
4400
ENDCHAR
STARTCHAR uni1E86
ENCODING 7814
SWIDTH 600 0
DWIDTH 9 0
BBX 10 11 0 0
BITMAP
0800
0000
E1C0
4080
4880
4900
5500
5500
6600
6600
4400
ENDCHAR
STARTCHAR uni1E87
ENCODING 7815
SWIDTH 600 0
DWIDTH 9 0
BBX 10 9 0 0
BITMAP
0800
0000
E1C0
4880
4900
5900
6600
6600
4400
ENDCHAR
STARTCHAR uni1E88
ENCODING 7816
SWIDTH 600 0
DWIDTH 9 0
BBX 10 11 0 -2
BITMAP
E1C0
4080
4880
4900
5500
5500
6600
6600
4400
0000
0800
ENDCHAR
STARTCHAR uni1E89
ENCODING 7817
SWIDTH 600 0
DWIDTH 9 0
BBX 10 9 0 -2
BITMAP
E1C0
4880
4900
5900
6600
6600
4400
0000
0800
ENDCHAR
STARTCHAR uni1E8A
ENCODING 7818
SWIDTH 600 0
DWIDTH 9 0
BBX 9 11 0 0
BITMAP
0400
0000
3B80
1100
1200
0C00
0800
1800
2400
4400
EE00
ENDCHAR
STARTCHAR uni1E8B
ENCODING 7819
SWIDTH 600 0
DWIDTH 9 0
BBX 8 9 0 0
BITMAP
08
00
77
22
14
18
28
44
EE
ENDCHAR
STARTCHAR uni1E8C
ENCODING 7820
SWIDTH 600 0
DWIDTH 9 0
BBX 9 11 0 0
BITMAP
1200
0000
3B80
1100
1200
0C00
0800
1800
2400
4400
EE00
ENDCHAR
STARTCHAR uni1E8D
ENCODING 7821
SWIDTH 600 0
DWIDTH 9 0
BBX 8 9 0 0
BITMAP
24
00
77
22
14
18
28
44
EE
ENDCHAR
STARTCHAR uni1E8E
ENCODING 7822
SWIDTH 600 0
DWIDTH 9 0
BBX 8 11 1 0
BITMAP
08
00
77
22
24
28
10
10
20
20
F8
ENDCHAR
STARTCHAR uni1E8F
ENCODING 7823
SWIDTH 600 0
DWIDTH 9 0
BBX 9 12 0 -3
BITMAP
0800
0000
7380
2100
2200
1400
1400
0800
1000
1000
2000
F000
ENDCHAR
STARTCHAR uni1E90
ENCODING 7824
SWIDTH 600 0
DWIDTH 9 0
BBX 7 12 1 0
BITMAP
18
28
00
3E
42
44
08
10
20
44
84
F8
ENDCHAR
STARTCHAR uni1E91
ENCODING 7825
SWIDTH 600 0
DWIDTH 9 0
BBX 7 10 1 0
BITMAP
18
28
00
7E
44
08
10
20
44
FC
ENDCHAR
STARTCHAR uni1E92
ENCODING 7826
SWIDTH 600 0
DWIDTH 9 0
BBX 7 11 1 -2
BITMAP
3E
42
44
08
10
20
44
84
F8
00
10
ENDCHAR
STARTCHAR uni1E93
ENCODING 7827
SWIDTH 600 0
DWIDTH 9 0
BBX 7 9 1 -2
BITMAP
7E
44
08
10
20
44
FC
00
10
ENDCHAR
STARTCHAR uni1E94
ENCODING 7828
SWIDTH 600 0
DWIDTH 9 0
BBX 7 11 1 -2
BITMAP
3E
42
44
08
10
20
44
84
F8
00
78
ENDCHAR
STARTCHAR uni1E95
ENCODING 7829
SWIDTH 600 0
DWIDTH 9 0
BBX 7 9 1 -2
BITMAP
7E
44
08
10
20
44
FC
00
78
ENDCHAR
STARTCHAR uni1E96
ENCODING 7830
SWIDTH 600 0
DWIDTH 9 0
BBX 7 12 0 -2
BITMAP
30
10
10
1C
32
22
22
44
44
EE
00
3C
ENDCHAR
STARTCHAR uni1E97
ENCODING 7831
SWIDTH 600 0
DWIDTH 9 0
BBX 7 11 1 0
BITMAP
24
00
10
10
FE
20
20
40
40
44
38
ENDCHAR
STARTCHAR uni1E98
ENCODING 7832
SWIDTH 600 0
DWIDTH 9 0
BBX 10 11 0 0
BITMAP
0600
0A00
0C00
0000
E1C0
4880
4900
5900
6600
6600
4400
ENDCHAR
STARTCHAR uni1E99
ENCODING 7833
SWIDTH 600 0
DWIDTH 9 0
BBX 9 14 0 -3
BITMAP
0600
0A00
0C00
0000
7380
2100
2200
1400
1400
0800
1000
1000
2000
F000
ENDCHAR
STARTCHAR uni1EA0
ENCODING 7840
SWIDTH 600 0
DWIDTH 9 0
BBX 8 11 0 -2
BITMAP
1E
06
0A
0A
12
3E
22
42
EF
00
08
ENDCHAR
STARTCHAR uni1EA1
ENCODING 7841
SWIDTH 600 0
DWIDTH 9 0
BBX 6 9 1 -2
BITMAP
38
44
04
78
88
88
74
00
10
ENDCHAR
STARTCHAR uni1EA4
ENCODING 7844
SWIDTH 600 0
DWIDTH 9 0
BBX 8 15 0 0
BITMAP
03
0C
00
06
0A
00
1E
06
0A
0A
12
3E
22
42
EF
ENDCHAR
STARTCHAR uni1EA5
ENCODING 7845
SWIDTH 600 0
DWIDTH 9 0
BBX 7 13 1 0
BITMAP
06
18
00
0C
14
00
38
44
04
78
88
88
74
ENDCHAR
STARTCHAR uni1EA6
ENCODING 7846
SWIDTH 600 0
DWIDTH 9 0
BBX 8 15 0 0
BITMAP
30
0C
00
06
0A
00
1E
06
0A
0A
12
3E
22
42
EF
ENDCHAR
STARTCHAR uni1EA7
ENCODING 7847
SWIDTH 600 0
DWIDTH 9 0
BBX 6 13 1 0
BITMAP
30
0C
00
0C
14
00
38
44
04
78
88
88
74
ENDCHAR
STARTCHAR uni1EAA
ENCODING 7850
SWIDTH 600 0
DWIDTH 9 0
BBX 8 15 0 0
BITMAP
0A
14
00
06
0A
00
1E
06
0A
0A
12
3E
22
42
EF
ENDCHAR
STARTCHAR uni1EAB
ENCODING 7851
SWIDTH 600 0
DWIDTH 9 0
BBX 7 13 1 0
BITMAP
0A
14
00
0C
14
00
38
44
04
78
88
88
74
ENDCHAR
STARTCHAR uni1EAC
ENCODING 7852
SWIDTH 600 0
DWIDTH 9 0
BBX 8 14 0 -2
BITMAP
0C
14
00
1E
06
0A
0A
12
3E
22
42
EF
00
08
ENDCHAR
STARTCHAR uni1EAD
ENCODING 7853
SWIDTH 600 0
DWIDTH 9 0
BBX 6 12 1 -2
BITMAP
18
28
00
38
44
04
78
88
88
74
00
10
ENDCHAR
STARTCHAR uni1EAE
ENCODING 7854
SWIDTH 600 0
DWIDTH 9 0
BBX 8 15 0 0
BITMAP
06
18
00
12
1C
00
1E
06
0A
0A
12
3E
22
42
EF
ENDCHAR
STARTCHAR uni1EAF
ENCODING 7855
SWIDTH 600 0
DWIDTH 9 0
BBX 6 13 1 0
BITMAP
0C
30
00
24
38
00
38
44
04
78
88
88
74
ENDCHAR
STARTCHAR uni1EB0
ENCODING 7856
SWIDTH 600 0
DWIDTH 9 0
BBX 8 15 0 0
BITMAP
30
0C
00
12
1C
00
1E
06
0A
0A
12
3E
22
42
EF
ENDCHAR
STARTCHAR uni1EB1
ENCODING 7857
SWIDTH 600 0
DWIDTH 9 0
BBX 6 13 1 0
BITMAP
60
18
00
24
38
00
38
44
04
78
88
88
74
ENDCHAR
STARTCHAR uni1EB4
ENCODING 7860
SWIDTH 600 0
DWIDTH 9 0
BBX 8 15 0 0
BITMAP
0A
14
00
12
1C
00
1E
06
0A
0A
12
3E
22
42
EF
ENDCHAR
STARTCHAR uni1EB5
ENCODING 7861
SWIDTH 600 0
DWIDTH 9 0
BBX 6 13 1 0
BITMAP
14
28
00
24
38
00
38
44
04
78
88
88
74
ENDCHAR
STARTCHAR uni1EB6
ENCODING 7862
SWIDTH 600 0
DWIDTH 9 0
BBX 8 14 0 -2
BITMAP
12
1C
00
1E
06
0A
0A
12
3E
22
42
EF
00
08
ENDCHAR
STARTCHAR uni1EB7
ENCODING 7863
SWIDTH 600 0
DWIDTH 9 0
BBX 6 12 1 -2
BITMAP
24
38
00
38
44
04
78
88
88
74
00
10
ENDCHAR
STARTCHAR uni1EB8
ENCODING 7864
SWIDTH 600 0
DWIDTH 9 0
BBX 9 11 0 -2
BITMAP
3F80
1100
1100
2400
3C00
2400
4100
4200
FE00
0000
0800
ENDCHAR
STARTCHAR uni1EB9
ENCODING 7865
SWIDTH 600 0
DWIDTH 9 0
BBX 7 9 1 -2
BITMAP
1C
62
42
FE
80
8C
70
00
10
ENDCHAR
STARTCHAR uni1EBC
ENCODING 7868
SWIDTH 600 0
DWIDTH 9 0
BBX 9 12 0 0
BITMAP
0500
0A00
0000
3F80
1100
1100
2400
3C00
2400
4100
4200
FE00
ENDCHAR
STARTCHAR uni1EBD
ENCODING 7869
SWIDTH 600 0
DWIDTH 9 0
BBX 7 10 1 0
BITMAP
14
28
00
1C
62
42
FE
80
8C
70
ENDCHAR
STARTCHAR uni1EBE
ENCODING 7870
SWIDTH 600 0
DWIDTH 9 0
BBX 9 15 0 0
BITMAP
0300
0C00
0000
0600
0A00
0000
3F80
1080
1080
2400
3C00
2400
4100
4200
FE00
ENDCHAR
STARTCHAR uni1EBF
ENCODING 7871
SWIDTH 600 0
DWIDTH 9 0
BBX 8 13 1 0
BITMAP
03
0C
00
06
0A
00
1C
62
42
FE
80
8C
70
ENDCHAR
STARTCHAR uni1EC0
ENCODING 7872
SWIDTH 600 0
DWIDTH 9 0
BBX 9 15 0 0
BITMAP
1800
0600
0000
0600
0A00
0000
3F80
1080
1080
2400
3C00
2400
4100
4200
FE00
ENDCHAR
STARTCHAR uni1EC1
ENCODING 7873
SWIDTH 600 0
DWIDTH 9 0
BBX 7 13 1 0
BITMAP
30
0C
00
06
0A
00
1C
62
42
FE
80
8C
70
ENDCHAR
STARTCHAR uni1EC4
ENCODING 7876
SWIDTH 600 0
DWIDTH 9 0
BBX 9 15 0 0
BITMAP
0500
0A00
0000
0600
0A00
0000
3F80
1080
1080
2400
3C00
2400
4100
4200
FE00
ENDCHAR
STARTCHAR uni1EC5
ENCODING 7877
SWIDTH 600 0
DWIDTH 9 0
BBX 7 13 1 0
BITMAP
0A
14
00
06
0A
00
1C
62
42
FE
80
8C
70
ENDCHAR
STARTCHAR uni1EC6
ENCODING 7878
SWIDTH 600 0
DWIDTH 9 0
BBX 9 14 0 -2
BITMAP
0600
0A00
0000
3F80
1100
1100
2400
3C00
2400
4100
4200
FE00
0000
0800
ENDCHAR
STARTCHAR uni1EC7
ENCODING 7879
SWIDTH 600 0
DWIDTH 9 0
BBX 7 12 1 -2
BITMAP
18
28
00
1C
62
42
FE
80
8C
70
00
10
ENDCHAR
STARTCHAR uni1ECA
ENCODING 7882
SWIDTH 600 0
DWIDTH 9 0
BBX 7 11 1 -2
BITMAP
3E
08
08
10
10
10
20
20
F8
00
20
ENDCHAR
STARTCHAR uni1ECB
ENCODING 7883
SWIDTH 600 0
DWIDTH 9 0
BBX 5 12 2 -2
BITMAP
08
08
00
70
10
10
20
20
20
F8
00
20
ENDCHAR
STARTCHAR uni1ECC
ENCODING 7884
SWIDTH 600 0
DWIDTH 9 0
BBX 7 11 1 -2
BITMAP
1C
66
42
82
82
82
84
CC
70
00
10
ENDCHAR
STARTCHAR uni1ECD
ENCODING 7885
SWIDTH 600 0
DWIDTH 9 0
BBX 7 9 1 -2
BITMAP
1C
62
42
82
84
8C
70
00
10
ENDCHAR
STARTCHAR uni1ED0
ENCODING 7888
SWIDTH 600 0
DWIDTH 9 0
BBX 7 15 1 0
BITMAP
06
18
00
0C
14
00
1C
66
42
82
82
82
84
CC
70
ENDCHAR
STARTCHAR uni1ED1
ENCODING 7889
SWIDTH 600 0
DWIDTH 9 0
BBX 8 13 1 0
BITMAP
03
0C
00
06
0A
00
1C
62
42
82
84
8C
70
ENDCHAR
STARTCHAR uni1ED2
ENCODING 7890
SWIDTH 600 0
DWIDTH 9 0
BBX 7 15 1 0
BITMAP
30
0C
00
0C
14
00
1C
66
42
82
82
82
84
CC
70
ENDCHAR
STARTCHAR uni1ED3
ENCODING 7891
SWIDTH 600 0
DWIDTH 9 0
BBX 7 13 1 0
BITMAP
30
0C
00
06
0A
00
1C
62
42
82
84
8C
70
ENDCHAR
STARTCHAR uni1ED6
ENCODING 7894
SWIDTH 600 0
DWIDTH 9 0
BBX 7 15 1 0
BITMAP
0A
14
00
0C
14
00
1C
66
42
82
82
82
84
CC
70
ENDCHAR
STARTCHAR uni1ED7
ENCODING 7895
SWIDTH 600 0
DWIDTH 9 0
BBX 7 13 1 0
BITMAP
0A
14
00
06
0A
00
1C
62
42
82
84
8C
70
ENDCHAR
STARTCHAR uni1ED8
ENCODING 7896
SWIDTH 600 0
DWIDTH 9 0
BBX 7 14 1 -2
BITMAP
18
28
00
1C
66
42
82
82
82
84
CC
70
00
10
ENDCHAR
STARTCHAR uni1ED9
ENCODING 7897
SWIDTH 600 0
DWIDTH 9 0
BBX 7 12 1 -2
BITMAP
18
28
00
1C
62
42
82
84
8C
70
00
10
ENDCHAR
STARTCHAR uni1EDA
ENCODING 7898
SWIDTH 600 0
DWIDTH 9 0
BBX 10 12 1 0
BITMAP
0300
0C00
0000
1CC0
66C0
4380
8300
8200
8200
8400
CC00
7000
ENDCHAR
STARTCHAR uni1EDB
ENCODING 7899
SWIDTH 600 0
DWIDTH 9 0
BBX 10 10 1 0
BITMAP
0300
0C00
0000
1CC0
62C0
4380
8300
8400
8C00
7000
ENDCHAR
STARTCHAR uni1EDC
ENCODING 7900
SWIDTH 600 0
DWIDTH 9 0
BBX 10 12 1 0
BITMAP
1800
0600
0000
1CC0
66C0
4380
8300
8200
8200
8400
CC00
7000
ENDCHAR
STARTCHAR uni1EDD
ENCODING 7901
SWIDTH 600 0
DWIDTH 9 0
BBX 10 10 1 0
BITMAP
1800
0600
0000
1CC0
62C0
4380
8300
8400
8C00
7000
ENDCHAR
STARTCHAR uni1EE0
ENCODING 7904
SWIDTH 600 0
DWIDTH 9 0
BBX 10 12 1 0
BITMAP
0500
0A00
0000
1CC0
66C0
4380
8300
8200
8200
8400
CC00
7000
ENDCHAR
STARTCHAR uni1EE1
ENCODING 7905
SWIDTH 600 0
DWIDTH 9 0
BBX 10 10 1 0
BITMAP
0500
0A00
0000
1CC0
62C0
4380
8300
8400
8C00
7000
ENDCHAR
STARTCHAR uni1EE2
ENCODING 7906
SWIDTH 600 0
DWIDTH 9 0
BBX 10 11 1 -2
BITMAP
1CC0
66C0
4380
8300
8200
8200
8400
CC00
7000
0000
1000
ENDCHAR
STARTCHAR uni1EE3
ENCODING 7907
SWIDTH 600 0
DWIDTH 9 0
BBX 10 9 1 -2
BITMAP
1CC0
62C0
4380
8300
8400
8C00
7000
0000
1000
ENDCHAR
STARTCHAR uni1EE4
ENCODING 7908
SWIDTH 600 0
DWIDTH 9 0
BBX 8 11 1 -2
BITMAP
77
22
22
44
44
44
88
88
70
00
10
ENDCHAR
STARTCHAR uni1EE5
ENCODING 7909
SWIDTH 600 0
DWIDTH 9 0
BBX 6 9 1 -2
BITMAP
CC
44
44
88
88
98
6C
00
10
ENDCHAR
STARTCHAR uni1EE8
ENCODING 7912
SWIDTH 600 0
DWIDTH 9 0
BBX 11 12 1 0
BITMAP
0180
0600
0000
7760
2260
22C0
4480
4400
4400
8800
8800
7000
ENDCHAR
STARTCHAR uni1EE9
ENCODING 7913
SWIDTH 600 0
DWIDTH 9 0
BBX 9 10 1 0
BITMAP
0300
0C00
0000
CD80
4580
4700
8A00
8800
9800
6C00
ENDCHAR
STARTCHAR uni1EEA
ENCODING 7914
SWIDTH 600 0
DWIDTH 9 0
BBX 11 12 1 0
BITMAP
1800
0600
0000
7760
2260
22C0
4480
4400
4400
8800
8800
7000
ENDCHAR
STARTCHAR uni1EEB
ENCODING 7915
SWIDTH 600 0
DWIDTH 9 0
BBX 9 10 1 0
BITMAP
3000
0C00
0000
CD80
4580
4700
8A00
8800
9800
6C00
ENDCHAR
STARTCHAR uni1EEE
ENCODING 7918
SWIDTH 600 0
DWIDTH 9 0
BBX 11 12 1 0
BITMAP
0500
0A00
0000
7760
2260
22C0
4480
4400
4400
8800
8800
7000
ENDCHAR
STARTCHAR uni1EEF
ENCODING 7919
SWIDTH 600 0
DWIDTH 9 0
BBX 9 10 1 0
BITMAP
0A00
1400
0000
CD80
4580
4700
8A00
8800
9800
6C00
ENDCHAR
STARTCHAR uni1EF0
ENCODING 7920
SWIDTH 600 0
DWIDTH 9 0
BBX 11 11 1 -2
BITMAP
7760
2260
22C0
4480
4400
4400
8800
8800
7000
0000
1000
ENDCHAR
STARTCHAR uni1EF1
ENCODING 7921
SWIDTH 600 0
DWIDTH 9 0
BBX 9 9 1 -2
BITMAP
CD80
4580
4700
8A00
8800
9800
6C00
0000
1000
ENDCHAR
STARTCHAR Ygrave
ENCODING 7922
SWIDTH 600 0
DWIDTH 9 0
BBX 8 12 1 0
BITMAP
30
0C
00
77
22
24
28
10
10
20
20
F8
ENDCHAR
STARTCHAR ygrave
ENCODING 7923
SWIDTH 600 0
DWIDTH 9 0
BBX 9 13 0 -3
BITMAP
3000
0C00
0000
7380
2100
2200
1400
1400
0800
1000
1000
2000
F000
ENDCHAR
STARTCHAR uni1EF4
ENCODING 7924
SWIDTH 600 0
DWIDTH 9 0
BBX 8 11 1 -2
BITMAP
77
22
24
28
10
10
20
20
F8
00
10
ENDCHAR
STARTCHAR uni1EF5
ENCODING 7925
SWIDTH 600 0
DWIDTH 9 0
BBX 9 12 0 -5
BITMAP
7380
2100
2200
1400
1400
0800
1000
1000
2000
F000
0000
1000
ENDCHAR
STARTCHAR uni1EF8
ENCODING 7928
SWIDTH 600 0
DWIDTH 9 0
BBX 8 12 1 0
BITMAP
0A
14
00
77
22
24
28
10
10
20
20
F8
ENDCHAR
STARTCHAR uni1EF9
ENCODING 7929
SWIDTH 600 0
DWIDTH 9 0
BBX 9 13 0 -3
BITMAP
0A00
1400
0000
7380
2100
2200
1400
1400
0800
1000
1000
2000
F000
ENDCHAR
STARTCHAR uni2000
ENCODING 8192
SWIDTH 600 0
DWIDTH 9 0
BBX 1 1 0 0
BITMAP
00
ENDCHAR
STARTCHAR uni2001
ENCODING 8193
SWIDTH 600 0
DWIDTH 9 0
BBX 1 1 0 0
BITMAP
00
ENDCHAR
STARTCHAR uni2002
ENCODING 8194
SWIDTH 600 0
DWIDTH 9 0
BBX 1 1 0 0
BITMAP
00
ENDCHAR
STARTCHAR uni2003
ENCODING 8195
SWIDTH 600 0
DWIDTH 9 0
BBX 1 1 0 0
BITMAP
00
ENDCHAR
STARTCHAR uni2004
ENCODING 8196
SWIDTH 600 0
DWIDTH 9 0
BBX 1 1 0 0
BITMAP
00
ENDCHAR
STARTCHAR uni2005
ENCODING 8197
SWIDTH 600 0
DWIDTH 9 0
BBX 1 1 0 0
BITMAP
00
ENDCHAR
STARTCHAR uni2006
ENCODING 8198
SWIDTH 600 0
DWIDTH 9 0
BBX 1 1 0 0
BITMAP
00
ENDCHAR
STARTCHAR uni2007
ENCODING 8199
SWIDTH 600 0
DWIDTH 9 0
BBX 1 1 0 0
BITMAP
00
ENDCHAR
STARTCHAR uni2008
ENCODING 8200
SWIDTH 600 0
DWIDTH 9 0
BBX 1 1 0 0
BITMAP
00
ENDCHAR
STARTCHAR uni2009
ENCODING 8201
SWIDTH 600 0
DWIDTH 9 0
BBX 1 1 0 0
BITMAP
00
ENDCHAR
STARTCHAR uni200A
ENCODING 8202
SWIDTH 600 0
DWIDTH 9 0
BBX 1 1 0 0
BITMAP
00
ENDCHAR
STARTCHAR uni2010
ENCODING 8208
SWIDTH 600 0
DWIDTH 9 0
BBX 6 1 1 4
BITMAP
FC
ENDCHAR
STARTCHAR uni2011
ENCODING 8209
SWIDTH 600 0
DWIDTH 9 0
BBX 6 1 1 4
BITMAP
FC
ENDCHAR
STARTCHAR figuredash
ENCODING 8210
SWIDTH 600 0
DWIDTH 9 0
BBX 7 1 1 4
BITMAP
FE
ENDCHAR
STARTCHAR endash
ENCODING 8211
SWIDTH 600 0
DWIDTH 9 0
BBX 7 1 1 4
BITMAP
FE
ENDCHAR
STARTCHAR emdash
ENCODING 8212
SWIDTH 600 0
DWIDTH 9 0
BBX 9 1 0 4
BITMAP
FF80
ENDCHAR
STARTCHAR afii00208
ENCODING 8213
SWIDTH 600 0
DWIDTH 9 0
BBX 9 1 0 4
BITMAP
FF80
ENDCHAR
STARTCHAR quoteleft
ENCODING 8216
SWIDTH 600 0
DWIDTH 9 0
BBX 3 4 4 6
BITMAP
C0
C0
60
20
ENDCHAR
STARTCHAR quoteright
ENCODING 8217
SWIDTH 600 0
DWIDTH 9 0
BBX 3 4 3 6
BITMAP
60
60
C0
80
ENDCHAR
STARTCHAR quotesinglbase
ENCODING 8218
SWIDTH 600 0
DWIDTH 9 0
BBX 3 4 2 -2
BITMAP
60
60
C0
80
ENDCHAR
STARTCHAR quotereversed
ENCODING 8219
SWIDTH 600 0
DWIDTH 9 0
BBX 3 4 3 6
BITMAP
C0
C0
60
20
ENDCHAR
STARTCHAR quotedblleft
ENCODING 8220
SWIDTH 600 0
DWIDTH 9 0
BBX 6 4 2 5
BITMAP
D8
D8
6C
24
ENDCHAR
STARTCHAR quotedblright
ENCODING 8221
SWIDTH 600 0
DWIDTH 9 0
BBX 6 4 2 5
BITMAP
6C
6C
D8
90
ENDCHAR
STARTCHAR quotedblbase
ENCODING 8222
SWIDTH 600 0
DWIDTH 9 0
BBX 6 4 1 -2
BITMAP
6C
6C
D8
90
ENDCHAR
STARTCHAR uni201F
ENCODING 8223
SWIDTH 600 0
DWIDTH 9 0
BBX 6 4 2 5
BITMAP
D8
D8
6C
24
ENDCHAR
STARTCHAR dagger
ENCODING 8224
SWIDTH 600 0
DWIDTH 9 0
BBX 6 10 2 -1
BITMAP
10
10
FC
20
20
20
40
40
40
40
ENDCHAR
STARTCHAR daggerdbl
ENCODING 8225
SWIDTH 600 0
DWIDTH 9 0
BBX 7 10 1 -1
BITMAP
08
08
7E
10
10
10
FC
20
20
20
ENDCHAR
STARTCHAR bullet
ENCODING 8226
SWIDTH 600 0
DWIDTH 9 0
BBX 4 3 3 4
BITMAP
70
F0
E0
ENDCHAR
STARTCHAR ellipsis
ENCODING 8230
SWIDTH 600 0
DWIDTH 9 0
BBX 7 2 1 0
BITMAP
92
92
ENDCHAR
STARTCHAR perthousand
ENCODING 8240
SWIDTH 600 0
DWIDTH 9 0
BBX 8 10 0 0
BITMAP
30
50
53
6C
30
C0
33
55
55
66
ENDCHAR
STARTCHAR guilsinglleft
ENCODING 8249
SWIDTH 600 0
DWIDTH 9 0
BBX 5 6 2 1
BITMAP
18
30
60
C0
60
30
ENDCHAR
STARTCHAR guilsinglright
ENCODING 8250
SWIDTH 600 0
DWIDTH 9 0
BBX 5 6 2 1
BITMAP
60
30
18
30
60
C0
ENDCHAR
STARTCHAR uni203D
ENCODING 8253
SWIDTH 600 0
DWIDTH 9 0
BBX 6 9 2 0
BITMAP
7C
4C
0C
1C
38
50
00
E0
E0
ENDCHAR
STARTCHAR fraction
ENCODING 8260
SWIDTH 600 0
DWIDTH 9 0
BBX 8 4 0 2
BITMAP
03
0C
30
C0
ENDCHAR
STARTCHAR oneinferior
ENCODING 8321
SWIDTH 600 0
DWIDTH 9 0
BBX 3 6 3 -3
BITMAP
20
E0
20
40
40
E0
ENDCHAR
STARTCHAR twoinferior
ENCODING 8322
SWIDTH 600 0
DWIDTH 9 0
BBX 5 6 2 -3
BITMAP
30
48
08
30
40
F0
ENDCHAR
STARTCHAR threeinferior
ENCODING 8323
SWIDTH 600 0
DWIDTH 9 0
BBX 5 6 3 -3
BITMAP
70
08
70
10
10
E0
ENDCHAR
STARTCHAR uni20A5
ENCODING 8357
SWIDTH 600 0
DWIDTH 9 0
BBX 9 12 0 -2
BITMAP
0100
0100
0200
6F80
3680
2480
2C80
4900
5900
FD80
2000
2000
ENDCHAR
STARTCHAR uni20A6
ENCODING 8358
SWIDTH 600 0
DWIDTH 9 0
BBX 10 9 0 0
BITMAP
71C0
1080
1080
3F80
2900
3F00
4500
4200
F200
ENDCHAR
STARTCHAR uni20A9
ENCODING 8361
SWIDTH 600 0
DWIDTH 9 0
BBX 10 9 0 0
BITMAP
E1C0
4080
4880
5F80
5500
7F00
6600
6600
4400
ENDCHAR
STARTCHAR Euro
ENCODING 8364
SWIDTH 600 0
DWIDTH 9 0
BBX 9 9 -1 0
BITMAP
0780
1880
1080
7E00
2000
FC00
2100
3300
1C00
ENDCHAR
STARTCHAR uni20AD
ENCODING 8365
SWIDTH 600 0
DWIDTH 9 0
BBX 9 9 0 0
BITMAP
3B80
1100
1200
2400
FF80
2400
4400
4400
E600
ENDCHAR
STARTCHAR trademark
ENCODING 8482
SWIDTH 600 0
DWIDTH 9 0
BBX 8 4 1 5
BITMAP
F1
5B
AE
AA
ENDCHAR
STARTCHAR uni212A
ENCODING 8490
SWIDTH 600 0
DWIDTH 9 0
BBX 9 9 0 0
BITMAP
3B80
1100
1200
2400
3800
2400
4400
4400
E600
ENDCHAR
STARTCHAR uni212B
ENCODING 8491
SWIDTH 600 0
DWIDTH 9 0
BBX 8 12 0 0
BITMAP
03
05
06
1E
06
0A
0A
12
3E
22
42
EF
ENDCHAR
STARTCHAR uni2132
ENCODING 8498
SWIDTH 600 0
DWIDTH 9 0
BBX 9 9 0 0
BITMAP
0780
0100
0100
1200
1E00
1200
4400
4400
FE00
ENDCHAR
STARTCHAR minus
ENCODING 8722
SWIDTH 600 0
DWIDTH 9 0
BBX 6 1 2 4
BITMAP
FC
ENDCHAR
STARTCHAR fraction
ENCODING 8725
SWIDTH 600 0
DWIDTH 9 0
BBX 8 4 0 2
BITMAP
03
0C
30
C0
ENDCHAR
STARTCHAR periodcentered
ENCODING 8729
SWIDTH 600 0
DWIDTH 9 0
BBX 2 2 4 3
BITMAP
C0
C0
ENDCHAR
STARTCHAR uni2236
ENCODING 8758
SWIDTH 600 0
DWIDTH 9 0
BBX 4 7 2 0
BITMAP
30
30
00
00
00
C0
C0
ENDCHAR
STARTCHAR uni2259
ENCODING 8793
SWIDTH 600 0
DWIDTH 9 0
BBX 7 6 1 3
BITMAP
18
28
00
7E
00
FC
ENDCHAR
STARTCHAR uni225A
ENCODING 8794
SWIDTH 600 0
DWIDTH 9 0
BBX 7 6 1 3
BITMAP
28
30
00
7E
00
FC
ENDCHAR
STARTCHAR notequal
ENCODING 8800
SWIDTH 600 0
DWIDTH 9 0
BBX 7 12 1 -1
BITMAP
02
02
04
04
08
7E
10
FC
20
20
40
40
ENDCHAR
STARTCHAR equivalence
ENCODING 8801
SWIDTH 600 0
DWIDTH 9 0
BBX 7 5 0 2
BITMAP
FE
00
FE
00
FE
ENDCHAR
STARTCHAR uni2262
ENCODING 8802
SWIDTH 600 0
DWIDTH 9 0
BBX 7 12 0 -1
BITMAP
02
02
04
04
FE
08
FE
10
FE
20
40
40
ENDCHAR
STARTCHAR lessequal
ENCODING 8804
SWIDTH 600 0
DWIDTH 9 0
BBX 7 9 1 -1
BITMAP
06
18
60
80
40
20
10
00
FE
ENDCHAR
STARTCHAR greaterequal
ENCODING 8805
SWIDTH 600 0
DWIDTH 9 0
BBX 7 9 1 -1
BITMAP
10
08
04
02
0C
30
C0
00
FE
ENDCHAR
STARTCHAR uni226E
ENCODING 8814
SWIDTH 600 0
DWIDTH 9 0
BBX 7 12 1 -1
BITMAP
02
02
04
06
18
68
90
50
20
30
40
40
ENDCHAR
STARTCHAR uni226F
ENCODING 8815
SWIDTH 600 0
DWIDTH 9 0
BBX 7 12 1 -1
BITMAP
02
02
04
14
08
0C
12
1C
30
E0
40
40
ENDCHAR
STARTCHAR uni2270
ENCODING 8816
SWIDTH 600 0
DWIDTH 9 0
BBX 7 12 1 -2
BITMAP
02
02
06
1C
68
88
50
30
30
20
FE
40
ENDCHAR
STARTCHAR uni2271
ENCODING 8817
SWIDTH 600 0
DWIDTH 9 0
BBX 7 12 1 -2
BITMAP
02
02
14
0C
0C
0A
1C
30
E0
20
FE
40
ENDCHAR
STARTCHAR fi
ENCODING -1
SWIDTH 600 0
DWIDTH 9 0
BBX 8 10 0 0
BITMAP
01
0D
10
7E
22
22
24
44
44
EE
ENDCHAR
STARTCHAR fl
ENCODING -1
SWIDTH 600 0
DWIDTH 9 0
BBX 8 9 0 0
BITMAP
0F
11
79
22
22
22
44
44
EE
ENDCHAR
ENDFONT
